<svg width="39" height="52" viewBox="0 0 39 52" fill="none" xmlns="http://www.w3.org/2000/svg">
<path d="M38.4637 13.3773C38.5838 13.6734 38.6674 13.9833 38.7126 14.3C38.6213 14.3193 38.527 14.3189 38.4358 14.2988C38.3447 14.2787 38.2589 14.2394 38.184 14.1833C37.9828 14.0736 37.7953 13.9364 37.5873 13.8403C37.3008 13.71 37.2054 13.7786 37.2463 14.0667C37.2736 14.2485 37.1951 14.3514 37.0246 14.3C36.7996 14.2348 36.5268 14.1971 36.4108 13.957C36.3516 13.8532 36.2727 13.7622 36.1785 13.6893C36.0842 13.6163 35.9766 13.5627 35.8618 13.5316C35.4969 13.391 35.1798 13.2332 35.1389 12.7736C35.1353 12.7094 35.1176 12.6469 35.0872 12.5904C35.0568 12.5339 35.0143 12.4849 34.9628 12.4468C34.9113 12.4088 34.852 12.3827 34.7893 12.3704C34.7266 12.3581 34.662 12.3599 34.6001 12.3757C34.3329 12.3885 34.0655 12.356 33.809 12.2797C33.4937 12.1975 33.1606 12.2179 32.8576 12.338C32.6427 12.4203 32.3802 12.5541 32.1585 12.3894C32.1044 12.3342 32.0377 12.2931 31.9642 12.2699C31.8906 12.2466 31.8125 12.2419 31.7368 12.2562C31.661 12.2704 31.5899 12.3031 31.5296 12.3515C31.4694 12.3998 31.4219 12.4623 31.3912 12.5335C31.3717 12.5622 31.3445 12.5848 31.3128 12.5987C31.1748 12.6511 31.0601 12.7516 30.9894 12.8819C30.9187 13.0121 30.8967 13.1635 30.9275 13.3087C30.9308 13.3925 30.9151 13.4759 30.8814 13.5526C30.8477 13.6293 30.797 13.6972 30.7331 13.7512C30.3921 14.1353 30.0272 14.5195 29.7101 14.9242C29.393 15.329 29.185 15.8195 29.4612 16.3786C29.541 16.529 29.5749 16.6997 29.5585 16.8694C29.5421 17.0391 29.4762 17.2001 29.3691 17.3322C29.3074 17.4049 29.267 17.4935 29.2525 17.588C29.2381 17.6825 29.2501 17.7792 29.2873 17.8673C29.3302 17.9775 29.3302 18.1 29.2873 18.2103C29.1918 18.4366 29.2873 18.5773 29.485 18.6836C29.7811 18.8572 30.0032 19.1344 30.1091 19.4622C30.3121 19.9576 30.6592 20.3796 31.1048 20.6731C31.1916 20.7592 31.3086 20.8074 31.4305 20.8074C31.5523 20.8074 31.6693 20.7592 31.7561 20.6731C31.81 20.6278 31.8728 20.5946 31.9404 20.5757C32.0081 20.5568 32.0789 20.5525 32.1483 20.5633C32.6527 20.6461 33.1697 20.536 33.5975 20.2546C33.7232 20.1956 33.8563 20.154 33.9931 20.1311C34.2693 20.0694 34.4944 20.1311 34.5558 20.4227C34.6001 20.6319 34.716 20.6559 34.8968 20.577C35.2821 20.3952 35.1082 21.0984 35.4867 20.92C35.5037 20.9578 35.5378 20.9955 35.5378 21.0366C35.5364 21.092 35.5248 21.1467 35.5037 21.1979C35.4662 21.3008 35.4151 21.4037 35.3844 21.51C35.3094 21.7741 35.1321 22.0725 35.3435 22.3058C35.5549 22.539 35.531 22.8306 35.8379 22.9369C35.9095 22.9609 35.8584 23.033 35.8379 23.081C35.8175 23.129 35.7493 23.2559 35.7663 23.3348C35.8302 23.6802 35.8226 24.0351 35.744 24.3774C35.6654 24.7197 35.5174 25.042 35.3094 25.3242C35.3082 25.3437 35.3082 25.3631 35.3094 25.3826C34.9343 26.2023 35.2446 27.0976 35.0639 27.9208C35.0631 27.9665 35.0775 28.0112 35.1048 28.0477C35.1577 28.1062 35.1982 28.175 35.2236 28.2498C35.249 28.3247 35.2588 28.404 35.2524 28.4828C35.246 28.5617 35.2235 28.6383 35.1864 28.7081C35.1493 28.7778 35.0983 28.8391 35.0366 28.8881C35.0164 28.9042 34.9998 28.9244 34.9879 28.9474C34.976 28.9704 34.969 28.9956 34.9674 29.0215C34.9658 29.0474 34.9696 29.0733 34.9786 29.0976C34.9876 29.1218 35.0015 29.144 35.0195 29.1625C35.1082 29.238 35.1934 29.1625 35.265 29.1008C35.7424 28.7921 36.288 28.5931 36.7109 28.1952C36.5228 29.3944 36.2539 30.5794 35.9061 31.7419C35.8988 31.7877 35.8823 31.8314 35.8577 31.8706C35.8331 31.9097 35.8009 31.9435 35.763 31.9698C35.725 31.996 35.6822 32.0143 35.6371 32.0235C35.592 32.0327 35.5454 32.0326 35.5003 32.0232C35.1593 31.9786 35.0332 32.181 34.9718 32.4657C34.8524 33.0213 34.8695 33.5942 34.7808 34.1533C34.7638 34.2596 34.7808 34.4037 34.6342 34.4174C34.4875 34.4311 34.4841 34.2905 34.4466 34.2047C34.3477 33.9715 34.2557 33.7314 34.1465 33.4604C34.083 33.5129 34.0327 33.5797 33.9995 33.6553C33.9663 33.731 33.9513 33.8134 33.9556 33.896C33.9249 34.4723 33.8874 35.052 33.8772 35.6111C33.8431 37.2369 33.8362 38.8628 33.7919 40.4852C33.7714 41.1335 33.768 41.7818 33.693 42.43C33.6816 42.6649 33.6333 42.8964 33.5498 43.1161C33.5157 43.1847 33.4884 43.2738 33.3964 43.2841C33.3043 43.2944 33.2395 43.2018 33.1951 43.1264C32.9782 42.7209 32.869 42.2661 32.878 41.8058C32.878 40.4337 32.878 39.0617 32.8576 37.6657C32.8678 36.9045 32.7191 36.1496 32.4211 35.4498C32.3154 35.22 32.2301 34.9182 31.913 34.9147C31.5958 34.9113 31.4833 35.1994 31.3776 35.4293C30.9806 36.1928 30.7482 37.032 30.6956 37.8921C30.7 38.6029 30.5474 39.3058 30.2489 39.9501C30.1889 40.0729 30.1145 40.1881 30.0272 40.2931C29.9358 40.414 29.8113 40.5054 29.6689 40.556C29.5265 40.6066 29.3725 40.6142 29.2259 40.5778C29.0867 40.5452 28.9627 40.466 28.8741 40.3532C28.7855 40.2404 28.7376 40.1007 28.7382 39.957C28.7148 39.4674 28.7584 38.9768 28.8678 38.4992C28.9609 37.973 28.9963 37.4381 28.9735 36.9042C28.9735 36.6984 28.9735 36.4377 28.7553 36.3485C28.537 36.2593 28.387 36.4857 28.237 36.6126C28.1406 36.6936 28.0505 36.7819 27.9676 36.8768C27.6702 37.275 27.2859 37.5994 26.8442 37.8248C26.4026 38.0501 25.9154 38.1706 25.4203 38.1768C25.047 38.1846 24.6797 38.2723 24.3427 38.434C24.0655 38.5254 23.835 38.7223 23.7005 38.9827C23.566 39.243 23.5382 39.546 23.6232 39.8266C23.9563 41.4113 23.9424 43.05 23.5823 44.6287C23.5227 44.9875 23.3492 45.3172 23.0878 45.5686C23.0494 45.6007 23.0216 45.6438 23.0082 45.6923C22.9948 45.7407 22.9964 45.7921 23.0128 45.8395C23.0446 45.9923 23.0663 46.147 23.0776 46.3026C23.0946 46.4878 23.0401 46.6456 22.8184 46.6628C22.5968 46.6799 22.4774 46.5221 22.5217 46.3438C22.6718 45.867 22.4569 45.5994 22.0477 45.3696C21.6385 45.1398 21.6317 44.7831 21.6181 44.4058C21.6341 43.449 21.5644 42.4927 21.4101 41.5485C21.1986 40.5709 20.6974 39.8095 19.6369 39.4905C19.3121 39.4035 18.9772 39.3608 18.6411 39.3636C17.7215 39.3637 16.8031 39.2983 15.8926 39.168C15.7103 39.1368 15.5303 39.0932 15.3539 39.0377C15.2353 39.0151 15.1298 38.9479 15.0588 38.8497C14.9879 38.7516 14.9568 38.6299 14.9719 38.5095C14.9915 38.3158 14.9465 38.1211 14.844 37.9559C14.7415 37.7907 14.5874 37.6645 14.4059 37.5971C13.9922 37.3516 13.522 37.2192 13.0418 37.2129C12.8688 37.2077 12.6983 37.2567 12.5542 37.3532C12.41 37.4497 12.2992 37.5888 12.2371 37.7514C12.0832 38.1596 12.0125 38.5947 12.0291 39.0308C12.0296 39.3308 11.9906 39.6296 11.9131 39.9192C11.8927 39.9913 11.8517 40.0839 11.7563 40.0736C11.6608 40.0633 11.6847 39.9501 11.6778 39.8815C11.5926 38.8833 11.5926 37.8783 11.3198 36.9042C11.2175 36.5269 11.1186 36.1153 10.6105 36.0021C9.92849 35.8512 9.64545 35.9781 9.43744 36.5989C9.20559 37.4019 9.06937 38.2298 9.03164 39.0651C8.81681 41.6514 8.85091 44.2446 8.76566 46.8343C8.76388 48.3273 8.87789 49.8182 9.10667 51.2934C9.10667 51.4443 9.24989 51.5849 9.10667 51.7496C9.04334 51.8473 8.95055 51.922 8.84192 51.9627C8.73329 52.0034 8.61454 52.0081 8.50309 51.976C8.3869 51.9451 8.28684 51.8707 8.22344 51.768C8.16003 51.6653 8.13808 51.5422 8.16209 51.4237C8.28485 50.5868 8.40078 49.7533 8.53718 48.9232C8.59883 48.2913 8.57128 47.6539 8.45535 47.0298C8.27803 45.3936 8.11434 43.7541 7.85859 42.1282C7.56533 40.2588 7.28911 38.386 6.60029 36.5989C6.45007 36.1229 6.1921 35.6885 5.84667 35.3298C5.73476 35.1958 5.57617 35.1099 5.40336 35.0897C4.15188 35.0897 3.84498 34.2287 3.73245 33.3746C3.67621 32.5974 3.65914 31.8178 3.6813 31.0388C3.70074 30.8042 3.66208 30.5685 3.56877 30.3527C3.38804 30.3939 3.3778 30.5585 3.31642 30.6958C3.17993 31.0534 2.9877 31.3868 2.74695 31.6836C2.40595 32.0266 2.14679 31.9855 1.98992 31.5361C1.71683 30.6417 1.53067 29.7227 1.43409 28.7921C1.2022 27.1731 1.01806 25.5472 0.912351 23.9179C0.79982 22.1274 0.527016 20.3712 0.527016 18.6013C0.518683 17.9915 0.551726 17.3818 0.62591 16.7765C0.813968 15.3588 1.15117 13.9653 1.63186 12.6192C1.97276 11.6773 2.39494 10.7671 2.89358 9.89918C2.99588 9.71739 3.05385 9.50472 3.26186 9.39153C3.29937 9.56303 3.39826 9.50472 3.48692 9.44298C3.65921 9.32958 3.82541 9.20707 3.9848 9.07596C4.78646 8.41316 5.64978 7.82963 6.56278 7.33348C6.75505 7.22255 6.97604 7.17236 7.19704 7.18942C7.82108 7.23401 7.93362 7.42952 7.58579 7.93718C7.40635 8.16341 7.27936 8.42707 7.21409 8.70894C7.19022 8.85301 7.17999 8.91818 7.02313 8.95248C6.96627 8.9631 6.91508 8.99384 6.8788 9.03914C6.84252 9.08444 6.82356 9.1413 6.82535 9.19944C6.82535 9.32979 6.91742 9.39496 7.03336 9.43612C7.1493 9.47728 7.22432 9.43612 7.2175 9.54245C7.20951 9.5883 7.18746 9.63048 7.15444 9.66308C7.12142 9.69568 7.07908 9.71707 7.03336 9.72425C6.61733 9.79628 6.46048 10.1359 6.21837 10.4103C5.90464 10.7533 5.7205 11.158 5.40677 11.477C5.32177 11.5476 5.25325 11.6361 5.2061 11.7363C5.15896 11.8364 5.13433 11.9459 5.13398 12.0567C5.13398 12.2899 5.15103 12.5232 5.13398 12.7427C5.11473 12.8247 5.12384 12.9108 5.1598 12.9869C5.19575 13.063 5.2564 13.1244 5.33175 13.1612C5.36802 13.1782 5.4004 13.2026 5.42684 13.2328C5.45328 13.263 5.47321 13.2984 5.48539 13.3367C5.49756 13.3751 5.5017 13.4155 5.49756 13.4556C5.49342 13.4956 5.48109 13.5344 5.46134 13.5694C5.3113 13.9467 5.60456 14.3343 5.43065 14.7116C5.42849 14.7285 5.43082 14.7456 5.43741 14.7613C5.444 14.7769 5.45461 14.7906 5.46815 14.8008C5.71027 14.9414 5.69663 15.1952 5.76142 15.4113C5.7942 15.5089 5.85465 15.5948 5.93533 15.6583C5.95447 15.6804 5.981 15.6947 6.00989 15.6985C6.03878 15.7023 6.06806 15.6953 6.0922 15.6789C6.11499 15.6629 6.13107 15.6389 6.13737 15.6117C6.14367 15.5845 6.13973 15.5559 6.1263 15.5314C5.93534 15.0169 6.02059 14.4475 5.78529 13.9432C5.73414 13.8369 5.71027 13.6414 5.91146 13.6277C6.11266 13.614 6.05809 13.7923 6.06832 13.9089C6.13686 14.422 6.3237 14.9118 6.61393 15.3393C6.72524 15.4837 6.80597 15.6495 6.85113 15.8265C6.89629 16.0034 6.90492 16.1878 6.8765 16.3683C6.84581 16.4987 6.83558 16.605 6.96175 16.7113C7.35792 17.0408 7.78772 17.3271 8.24393 17.5654C8.34938 17.6267 8.468 17.6616 8.5897 17.667C8.7114 17.6723 8.83259 17.6481 8.94298 17.5963C9.03717 17.5402 9.14806 17.5194 9.25602 17.5376C9.36399 17.5558 9.46208 17.6118 9.53292 17.6958C9.80451 17.9775 10.1371 18.1923 10.5048 18.3235C10.5924 18.333 10.6754 18.3674 10.7443 18.4227C10.8131 18.4779 10.8649 18.5518 10.8935 18.6356C11.0141 18.9432 11.1979 19.2217 11.433 19.4528C11.6681 19.684 11.9491 19.8625 12.2575 19.9768C12.4383 20.0522 12.5747 20.0591 12.6224 19.8361C12.6463 19.7195 12.6906 19.6132 12.8441 19.6372C12.9002 19.6472 12.9514 19.676 12.9891 19.719C13.0269 19.762 13.0491 19.8166 13.0521 19.8738C13.0576 19.9901 13.077 20.1053 13.11 20.2169C13.2136 20.4343 13.2592 20.6751 13.2424 20.9156C13.2257 21.1561 13.1472 21.3881 13.0146 21.5889C12.8202 21.8907 12.6463 22.2063 12.4451 22.5047C12.353 22.6454 12.3189 22.7723 12.4451 22.8958C12.5105 22.9575 12.5524 23.0403 12.5636 23.1299C12.5748 23.2194 12.5546 23.3101 12.5065 23.3863C12.4487 23.4769 12.4181 23.5822 12.4181 23.6898C12.4181 23.7974 12.4487 23.9028 12.5065 23.9934C12.9435 24.552 13.2889 25.1773 13.5295 25.8456C13.6201 26.0137 13.7287 26.1712 13.8534 26.3155C14.2524 26.9192 14.8764 27.3068 15.3743 27.8248C15.5749 27.9964 15.7263 28.2189 15.8126 28.4692C15.8989 28.7195 15.9172 28.9885 15.8654 29.2483C15.845 29.3686 15.845 29.4915 15.8654 29.6118C15.9711 30.2979 16.0631 30.953 16.2064 31.615C16.3871 32.4863 16.3564 33.4089 16.9907 34.1704C17.1441 34.3522 17.376 34.6781 17.1953 34.9593C17.1666 34.989 17.1452 35.025 17.1327 35.0644C17.1202 35.1038 17.117 35.1456 17.1233 35.1865C17.1296 35.2274 17.1452 35.2663 17.1689 35.3C17.1926 35.3338 17.2238 35.3616 17.2601 35.3812C17.4917 35.581 17.6581 35.8464 17.7375 36.1427C17.7995 36.3237 17.9157 36.4809 18.0702 36.5927C18.2247 36.7045 18.4099 36.7654 18.6002 36.767C18.7741 36.767 18.7946 36.767 18.7741 36.9248C18.7332 37.2369 18.8901 37.3913 19.2208 37.3981C19.4603 37.3887 19.6975 37.3483 19.9267 37.2781C19.5857 37.0757 19.3197 36.9008 19.0367 36.743C18.967 36.7055 18.9055 36.6541 18.856 36.5921C18.8066 36.5301 18.7701 36.4587 18.7487 36.3821C18.7274 36.3055 18.7216 36.2254 18.7319 36.1465C18.7421 36.0677 18.7681 35.9917 18.8082 35.9232C18.8438 35.8867 18.8714 35.8431 18.8892 35.7953C18.9071 35.7475 18.9148 35.6964 18.9119 35.6454C18.9091 35.5944 18.8956 35.5445 18.8725 35.499C18.8493 35.4536 18.817 35.4134 18.7775 35.3812C18.7202 35.3228 18.6798 35.2498 18.6606 35.1701C18.6414 35.0903 18.6441 35.0068 18.6684 34.9285C18.7161 34.6129 19.0094 34.2699 18.5763 33.9646C18.9344 34.0607 19.023 33.8514 19.0435 33.6216C19.064 33.3918 19.1526 33.3781 19.347 33.3712C19.7494 33.3712 19.9062 33.1311 19.7869 32.7641C19.7393 32.6387 19.6847 32.5162 19.6232 32.3971C19.5925 32.325 19.5209 32.253 19.5687 32.1775C19.6164 32.1021 19.7528 32.1501 19.8176 32.1775C20.1586 32.3388 20.3564 32.1775 20.5269 31.9203C20.7734 31.605 20.9785 31.2592 21.1373 30.8913C21.2954 30.5817 21.3594 30.2322 21.3214 29.8863C21.3132 29.8357 21.3186 29.7838 21.3372 29.7361C21.3558 29.6885 21.3869 29.6467 21.4271 29.6153C21.734 29.3152 22.1239 29.1155 22.5456 29.0425C22.6245 29.0391 22.701 29.0148 22.7675 28.972C22.834 28.9293 22.888 28.8695 22.9241 28.7989C23.3453 28.174 23.5567 27.4301 23.5277 26.6757C23.5043 26.339 23.56 26.0014 23.6903 25.6904C23.8207 25.3793 24.0219 25.1035 24.2779 24.8852C24.3393 24.82 24.4109 24.7583 24.4689 24.6897C24.5463 24.6106 24.6041 24.5143 24.6377 24.4086C24.6712 24.3028 24.6795 24.1907 24.6619 24.0811C24.6443 23.9715 24.6013 23.8677 24.5364 23.7779C24.4714 23.6882 24.3864 23.6151 24.2881 23.5646C23.5891 23.201 22.8559 22.8786 22.0102 23.2216C22.0539 23.1222 22.06 23.0102 22.0273 22.9066C21.9947 22.803 21.9255 22.715 21.8329 22.6591C21.7249 22.5911 21.5984 22.5588 21.4712 22.5668C21.344 22.5748 21.2224 22.6227 21.1236 22.7037C21.0486 22.7517 20.9634 22.7928 20.8815 22.8374C20.7997 22.882 20.7451 22.9026 20.7008 22.8374C20.6565 22.7723 20.7212 22.714 20.786 22.6934C20.9497 22.6488 20.9702 22.5356 20.9327 22.4053C20.9189 22.3489 20.8847 22.2997 20.8367 22.2674C20.7888 22.235 20.7306 22.2218 20.6735 22.2303C20.578 22.2303 20.4519 22.2646 20.486 22.0828C20.5712 21.6541 20.3223 21.3076 20.1006 20.9818C19.9988 20.8288 19.8582 20.7062 19.6932 20.6265C19.5283 20.5469 19.3451 20.5132 19.1629 20.529C18.9293 20.5345 18.6991 20.4729 18.4991 20.3514C18.2992 20.2299 18.1379 20.0535 18.0341 19.843C18.0041 19.7702 17.9559 19.7064 17.8943 19.6578C17.5533 19.4691 17.5533 19.2736 17.85 19.0506C17.8943 19.0163 17.9387 18.958 17.9011 18.9031C17.8636 18.8483 17.7886 18.8757 17.7238 18.9031C17.3828 19.0369 17.0896 19.3388 16.636 19.205C16.2433 19.1465 15.867 19.0063 15.5312 18.7934C15.3334 18.6253 15.1731 18.6493 15.0469 18.8791C14.9962 19.0157 14.9652 19.159 14.9549 19.3045C14.9549 19.3662 14.9242 19.452 14.8355 19.4382C14.8019 19.4308 14.7725 19.4106 14.7535 19.3818C14.7344 19.353 14.7271 19.3179 14.7332 19.2839C14.7411 19.1057 14.784 18.9308 14.8594 18.7694C14.9037 18.7076 15.0367 18.6356 14.9071 18.5533C14.8603 18.5282 14.8065 18.5193 14.7541 18.528C14.7018 18.5367 14.6537 18.5624 14.6173 18.6013C14.5184 18.6973 14.4366 18.8791 14.3411 18.886C13.966 18.9066 13.8603 19.1878 13.6863 19.4108C13.5533 19.5754 13.4169 19.6646 13.1953 19.4965C13.101 19.4374 12.9932 19.4035 12.8822 19.3981C12.7711 19.3927 12.6606 19.416 12.561 19.4657C12.0904 19.6372 11.7529 19.4108 11.7733 18.9271C11.7809 18.6156 11.8105 18.3049 11.862 17.9976C11.9131 17.6958 11.7426 17.5654 11.4869 17.4968C11.3739 17.4786 11.2588 17.4786 11.1459 17.4968C10.8731 17.5174 10.8219 17.4145 10.9106 17.1812C11.0367 16.8588 11.1493 16.5295 11.2516 16.2002C11.3539 15.8709 11.2516 15.8161 10.9413 15.8984C10.8232 15.9202 10.7117 15.9689 10.6154 16.0409C10.519 16.1128 10.4403 16.2061 10.3854 16.3134C10.3327 16.455 10.2401 16.5781 10.119 16.6676C9.9979 16.7571 9.85349 16.8093 9.70342 16.8176C9.56239 16.8211 9.42247 16.7918 9.29446 16.7322C9.16645 16.6726 9.05378 16.5841 8.96514 16.4738C8.87649 16.3634 8.81425 16.234 8.78321 16.0956C8.75217 15.9571 8.75317 15.8134 8.78612 15.6754C8.90539 15.3044 9.04776 14.9412 9.21238 14.5881C9.37606 14.0804 9.7989 13.8575 10.2354 13.6345C10.3471 13.5691 10.475 13.5369 10.6042 13.5417C10.7334 13.5466 10.8586 13.5883 10.9651 13.662C11.0045 13.699 11.0521 13.7261 11.1039 13.7411C11.1557 13.756 11.2103 13.7584 11.2632 13.748C11.3161 13.7377 11.3658 13.7148 11.4083 13.6814C11.4507 13.6479 11.4847 13.6048 11.5073 13.5556C11.5325 13.4939 11.5716 13.4389 11.6216 13.3951C11.6716 13.3512 11.7311 13.3197 11.7954 13.3031C11.8596 13.2864 11.9268 13.2851 11.9917 13.2991C12.0565 13.3132 12.1172 13.3423 12.1689 13.3841C12.2569 13.4129 12.3492 13.4257 12.4417 13.4219C12.81 13.4425 12.9327 13.5899 12.8645 13.9432C12.8219 14.1051 12.8219 14.2753 12.8645 14.4372C12.9089 14.5778 12.9532 14.7356 13.1407 14.7287C13.3283 14.7219 13.3385 14.5607 13.3863 14.4372C13.43 14.3127 13.4371 14.1781 13.4067 14.0496C13.3499 13.8582 13.332 13.6572 13.354 13.4586C13.376 13.2601 13.4376 13.0681 13.5349 12.8939C13.6323 12.7198 13.7635 12.5672 13.9208 12.4452C14.078 12.3231 14.2581 12.2342 14.4502 12.1836C14.648 12.1336 14.8264 12.0252 14.9625 11.8724C15.0986 11.7196 15.1862 11.5293 15.214 11.3261C15.2492 11.1371 15.3319 10.9603 15.4542 10.8126C15.5766 10.6648 15.7346 10.5511 15.9131 10.4823C16.3428 10.2731 16.5951 9.83058 17.0896 9.72425C17.1407 9.72425 17.1816 9.60419 17.2123 9.53559C17.4067 9.08282 18.3172 8.70208 18.8287 8.87702L18.6104 9.04166C18.5388 9.09311 18.399 9.12055 18.4536 9.22346C18.5081 9.32636 18.6377 9.26462 18.7264 9.22346C18.9924 9.08625 19.2618 8.95248 19.5209 8.80842C19.6028 8.76383 19.763 8.76382 19.7153 8.61976C19.6675 8.4757 19.555 8.56145 19.4664 8.55459C19.0026 8.53058 18.8935 8.37966 19.1015 7.99892C19.1901 7.83427 19.1526 7.77939 18.9787 7.75538C18.9139 7.75538 18.8355 7.77253 18.7878 7.63876C18.9889 7.60446 19.1867 7.5633 19.3845 7.53929C19.917 7.50478 20.4401 7.38192 20.9327 7.1757C21.0405 7.13921 21.1376 7.07615 21.215 6.99228C21.2924 6.9084 21.3478 6.80638 21.376 6.69549C21.3964 6.59601 21.376 6.51026 21.2771 6.48282C21.1785 6.46593 21.0845 6.42834 21.0013 6.37251C20.918 6.31667 20.8474 6.24384 20.794 6.15875C20.7406 6.07366 20.7057 5.97821 20.6914 5.87862C20.6771 5.77903 20.6837 5.67753 20.711 5.58071C20.71 5.42631 20.694 5.27237 20.6633 5.12108C20.6633 4.94958 20.5576 4.94615 20.4314 5.01818C20.2404 5.12794 20.0563 5.24456 19.8653 5.36119C19.7801 5.40921 19.671 5.47438 19.5789 5.38177C19.4868 5.28916 19.5789 5.18625 19.63 5.10736C19.6812 5.02847 19.7937 4.85697 19.7016 4.70947C19.5618 4.48652 18.6036 4.34588 18.4024 4.52768C18.1054 4.78727 17.9016 5.13807 17.8227 5.52583C17.7968 5.70396 17.725 5.87214 17.6143 6.01358C17.5036 6.15503 17.3579 6.26478 17.1919 6.3319C17.0551 6.38726 16.9313 6.47079 16.8286 6.57712C16.7258 6.68345 16.6463 6.81023 16.5951 6.94931C16.5951 6.98018 16.5678 7.00762 16.5542 7.0385C16.5463 7.06953 16.5323 7.09863 16.513 7.12406C16.4936 7.14948 16.4693 7.17069 16.4416 7.1864C16.4139 7.20212 16.3833 7.212 16.3516 7.21547C16.32 7.21894 16.288 7.21591 16.2575 7.20657C16.0836 7.15855 16.1143 7.03163 16.1552 6.90815C16.1961 6.78467 16.2268 6.67148 16.278 6.56514C16.3291 6.45881 16.278 6.32847 16.1416 6.32161C15.8494 6.26352 15.5661 6.16663 15.2993 6.03348C15.2192 6.02266 15.1439 5.98879 15.0825 5.93597C15.0211 5.88314 14.9762 5.81361 14.9532 5.73571C14.9301 5.65782 14.9299 5.57489 14.9526 5.49688C14.9753 5.41888 15.0199 5.34913 15.081 5.29602C15.3124 5.02641 15.5969 4.808 15.9165 4.65459C16.012 4.61 16.1552 4.60314 16.1995 4.53454C16.3939 4.2224 16.769 4.28414 17.0418 4.13665C17.0964 4.10578 17.1953 4.06119 17.2225 4.13665C17.3248 4.42821 17.4851 4.34931 17.6727 4.22583C17.7078 4.20502 17.7478 4.19404 17.7886 4.19404C17.8294 4.19404 17.8694 4.20502 17.9046 4.22583C18.0034 4.27728 18.116 4.38361 18.1774 4.20182C18.1953 4.17041 18.2057 4.13522 18.2078 4.09904C18.2099 4.06287 18.2036 4.0267 18.1894 3.99341C18.1751 3.96012 18.1534 3.93063 18.1258 3.90726C18.0983 3.8839 18.0657 3.86731 18.0307 3.85881C17.9355 3.80233 17.8247 3.77817 17.7148 3.78991C17.6049 3.80165 17.5016 3.84865 17.4203 3.92398C17.359 3.98573 17.2873 4.02003 17.2123 3.94799C17.1888 3.93169 17.1712 3.90822 17.1619 3.88104C17.1527 3.85386 17.1525 3.82442 17.1612 3.79707C17.1884 3.72161 17.2601 3.72161 17.3317 3.71132C17.6181 3.67359 17.9046 3.61185 18.1944 3.59813C18.377 3.59606 18.5532 3.53083 18.6936 3.41338C18.834 3.29594 18.9298 3.13346 18.9651 2.95327C19.006 2.82979 19.0503 2.78177 19.1731 2.79206C19.2953 2.80459 19.4175 2.76893 19.5141 2.69259C19.5316 2.67688 19.5522 2.66498 19.5745 2.65764C19.5968 2.65031 19.6204 2.64768 19.6438 2.64994C19.6671 2.65219 19.6898 2.65927 19.7103 2.67074C19.7308 2.68221 19.7488 2.69782 19.763 2.7166C19.9608 2.9224 20.1518 3.12821 20.3461 3.33401C20.3871 3.3786 20.4348 3.42319 20.3973 3.4815C20.3791 3.50469 20.353 3.52032 20.3241 3.52538C20.2951 3.53044 20.2653 3.52459 20.2404 3.50894C20.1771 3.46675 20.1022 3.44569 20.0262 3.44877C19.9503 3.45185 19.8773 3.4789 19.8176 3.52609C19.6275 3.68641 19.383 3.76633 19.1356 3.74905C19.0162 3.74905 18.7946 3.77649 18.856 3.95485C18.9173 4.13322 19.0708 4.05433 19.197 3.99259C19.4084 3.88282 19.538 3.92741 19.6369 4.14008C19.6882 4.23708 19.7605 4.3213 19.8484 4.38659C19.9364 4.45187 20.0377 4.49656 20.1449 4.51739C20.2779 4.55169 20.4587 4.66145 20.5644 4.51739C20.6701 4.37332 20.3939 4.34931 20.3802 4.2224C20.3816 4.19932 20.3887 4.17693 20.4007 4.15723C20.4757 4.12293 20.5303 4.15723 20.5882 4.20525C20.6462 4.25327 20.7144 4.33559 20.7997 4.28071C20.8398 4.24901 20.8694 4.20581 20.8846 4.15682C20.8999 4.10783 20.9 4.05535 20.8849 4.00631C20.8849 3.96515 20.8611 3.92398 20.8508 3.87939C20.8406 3.8348 20.7894 3.69074 20.8815 3.63243C20.9736 3.57412 21.035 3.64958 21.1066 3.68045L21.2941 3.76963C21.3549 3.79624 21.4232 3.7994 21.4861 3.77852C21.549 3.75764 21.6021 3.71418 21.6351 3.65644C21.717 3.55354 21.6624 3.46778 21.5772 3.39575C21.4273 3.25554 21.3108 3.08321 21.2362 2.89153C21.185 2.7852 21.1304 2.68573 21.0077 2.65485C20.6906 2.57253 20.5132 2.15406 20.0972 2.31185C20.0699 2.31185 20.0188 2.27069 19.9813 2.24325C19.8951 2.15292 19.7827 2.09234 19.6602 2.07016C19.5377 2.04798 19.4114 2.06534 19.2993 2.11976C19.2072 2.16435 19.1288 2.09575 19.0435 2.05802C18.7878 1.94483 18.249 2.2604 18.2524 2.52451C18.2513 2.56617 18.2611 2.60738 18.2807 2.6441C18.3003 2.68081 18.329 2.71176 18.3641 2.73391C18.3992 2.75606 18.4394 2.76864 18.4808 2.77041C18.5222 2.77219 18.5634 2.7631 18.6002 2.74404C18.6991 2.72346 18.798 2.67201 18.8696 2.82979C18.7304 2.81411 18.5895 2.83068 18.4577 2.87825C18.3259 2.92581 18.2067 3.0031 18.1092 3.1042C17.9216 3.31 17.9046 3.29971 17.8398 3.04931C17.8159 2.95327 17.7272 2.94298 17.6522 2.91897C17.5772 2.89496 17.5056 2.86066 17.5294 2.75776C17.5908 2.47992 17.4272 2.59311 17.3044 2.64113C17.0043 2.75776 16.7963 3.04931 16.411 2.98414C16.2814 2.98414 16.1893 3.11449 16.3325 3.24483C16.4007 3.30657 16.4996 3.3443 16.3973 3.45063C16.295 3.55697 16.2336 3.57069 16.1245 3.48836C16.0154 3.40604 15.8381 3.43005 15.688 3.42662C15.4595 3.45135 15.2284 3.43392 15.006 3.37517C15.122 3.23454 15.2447 3.29285 15.347 3.29285C15.879 3.29285 16.2029 2.86752 16.029 2.42161C16.0227 2.40688 16.0127 2.39406 16 2.3844C15.9872 2.37474 15.9722 2.36857 15.9564 2.36649C15.9406 2.36442 15.9245 2.36651 15.9098 2.37256C15.895 2.37862 15.882 2.38843 15.8722 2.40103C15.6891 2.50896 15.4808 2.56586 15.2686 2.56586C15.0564 2.56586 14.8481 2.50896 14.665 2.40103C14.6112 2.37742 14.5532 2.36523 14.4945 2.36523C14.4358 2.36523 14.3778 2.37742 14.324 2.40103C13.9473 2.54313 13.6003 2.75486 13.301 3.0253C13.2328 3.08361 13.1476 3.14879 13.2362 3.24826C13.3249 3.34773 13.4033 3.29971 13.4783 3.24826C13.5887 3.14623 13.7187 3.06802 13.8603 3.01844C14.1706 2.91897 13.8193 3.25169 14.041 3.26884C14.1433 3.26884 14.0001 3.31 13.9864 3.31343C13.9148 3.33058 13.8432 3.35802 13.8432 3.43348C13.8432 3.50894 13.9421 3.51237 14.0001 3.53639C14.1333 3.57861 14.2736 3.59377 14.4127 3.58098C14.4809 3.58098 14.5661 3.55011 14.6036 3.61871C14.6412 3.68731 14.5559 3.75591 14.5082 3.81079C14.4604 3.86567 14.3854 3.95143 14.3036 3.89311C13.9885 3.72821 13.6352 3.65122 13.2805 3.67016C12.555 3.60989 11.8313 3.80643 11.2345 4.22583C11.019 4.38466 10.7642 4.48078 10.498 4.50367C9.03164 4.65802 7.87564 5.41264 6.74692 6.21871C6.68213 6.2633 6.60028 6.32504 6.58664 6.39021C6.53208 6.63718 6.31725 6.70235 6.1297 6.81211C5.88759 6.95617 5.59774 7.04879 5.44769 7.30947C5.44769 7.30947 5.44769 7.30947 5.42382 7.30947C5.42172 7.31499 5.42172 7.3211 5.42382 7.32662L5.44429 7.29232H5.65911C5.65911 7.48098 5.47157 7.50499 5.34881 7.56673C4.8528 7.83959 4.42668 8.22476 4.10414 8.69179C3.88249 8.98232 3.59002 9.21035 3.25504 9.3538C3.6279 8.6346 4.0934 7.96799 4.63952 7.37121C5.76589 6.05684 7.04727 4.88541 8.45535 3.88282C9.30607 3.29199 10.1959 2.76023 11.1186 2.29127C11.7631 1.94826 12.4621 1.73902 13.1305 1.45776C13.4108 1.3203 13.7016 1.2056 14.0001 1.11475C14.3922 1.02214 14.8014 0.970686 15.1834 0.850633C16.0393 0.572797 16.9395 0.603668 17.8091 0.421873C18.7873 0.283202 19.778 0.256735 20.7622 0.342982C21.2953 0.327091 21.8282 0.380119 22.3478 0.500765C21.8943 0.500765 21.4408 0.500765 20.9838 0.521346C20.8338 0.521346 20.5678 0.435594 20.561 0.596807C20.5542 0.758021 20.8235 0.679129 20.9668 0.71343C21.11 0.747731 21.2498 0.68599 21.3521 0.826623C21.2081 0.874818 21.0541 0.884278 20.9054 0.854063C20.6326 0.854063 20.353 0.809472 20.1688 1.05987C20.1245 1.13077 20.0605 1.18706 19.9848 1.22181C19.909 1.25655 19.8248 1.26823 19.7426 1.25538C19.671 1.25538 19.5516 1.22794 19.5618 1.34456C19.5721 1.46119 19.6675 1.45776 19.7528 1.45433C19.9936 1.40379 20.2445 1.44668 20.4553 1.57438C20.4825 1.58256 20.5111 1.58496 20.5393 1.58142C20.5674 1.57787 20.5946 1.56847 20.6189 1.5538C21.3208 1.14416 22.113 0.916652 22.9241 0.891794C23.0776 0.891794 23.3197 0.891794 23.3436 0.631108C23.7191 0.603025 24.0963 0.658054 24.4484 0.792322C24.6302 0.856053 24.8174 0.903122 25.0077 0.932955C25.5302 1.02458 26.0383 1.18608 26.5183 1.41317C25.8424 1.38696 25.1729 1.27164 24.5268 1.07016C24.2336 0.970686 23.9301 0.778602 23.6266 0.881504C23.1661 1.04217 22.6817 1.12223 22.1944 1.11818C22.116 1.11818 22.0239 1.11818 21.9864 1.2005C21.9489 1.28282 22.0034 1.36858 22.0682 1.43718C22.157 1.52783 22.2634 1.59925 22.3806 1.64703C22.4979 1.69481 22.6237 1.71795 22.7502 1.71501C22.8909 1.73435 23.0264 1.78155 23.1489 1.8539C23.2713 1.92624 23.3783 2.02229 23.4636 2.13649C23.5489 2.25068 23.6108 2.38076 23.6458 2.51919C23.6808 2.65762 23.6882 2.80167 23.6675 2.94298C23.6232 3.14193 23.4663 3.31 23.4493 3.49522C23.4049 4.05776 23.2276 4.65802 23.9301 5.03533C24.2063 5.18625 24.4518 5.22741 24.6564 4.97702C24.7856 4.82098 24.9051 4.65718 25.0145 4.48652C25.0608 4.39947 25.1331 4.3292 25.2212 4.28553C25.3092 4.24186 25.4086 4.22698 25.5055 4.24298C25.7724 4.2706 26.0401 4.19991 26.2591 4.04404C26.4092 3.94456 26.6001 3.78335 26.7945 3.89311C27.0761 3.99801 27.374 4.05145 27.6743 4.0509C27.7635 4.05625 27.8525 4.03666 27.9314 3.99428C28.0102 3.9519 28.0759 3.88839 28.121 3.81079C28.2131 3.6976 28.0017 3.60842 27.9096 3.52267C27.8175 3.43691 27.78 3.45063 27.8073 3.36831C27.8346 3.28599 27.9028 3.31343 27.9573 3.31343C28.3256 3.31343 28.4177 3.10419 28.37 2.80921C28.3359 2.59997 28.404 2.55881 28.5916 2.6377C28.6973 2.6823 28.8064 2.76119 28.9497 2.6377C28.5681 2.48759 28.2143 2.27426 27.9028 2.00657C28.2442 2.02579 28.5725 2.14502 28.8474 2.34958C29.5294 2.72003 30.1739 3.11449 30.8218 3.5158C32.2126 4.41099 33.4835 5.48191 34.6035 6.70235C34.6922 6.77127 34.7509 6.87209 34.7672 6.98361C34.6308 7.00419 34.566 6.89786 34.4739 6.83269C34.2288 6.62337 33.9465 6.46274 33.6419 6.35934C33.5563 6.32237 33.4609 6.31512 33.3707 6.33872C33.2806 6.36232 33.2008 6.41543 33.144 6.48968C33.0928 6.58032 33.0145 6.65235 32.9202 6.69548C32.8258 6.7386 32.7204 6.75061 32.6189 6.72979C32.5966 6.72308 32.5731 6.72145 32.5501 6.72501C32.5271 6.72856 32.5051 6.73722 32.4859 6.75036C32.4666 6.76349 32.4505 6.78077 32.4387 6.80094C32.4269 6.82112 32.4197 6.84368 32.4177 6.86699C32.387 7.15512 32.878 7.73823 33.1645 7.68335C33.4509 7.62847 33.5532 7.8034 33.676 7.97491C33.7169 8.03322 33.826 8.09839 33.7374 8.16699C33.6487 8.23559 33.5771 8.14641 33.5293 8.06752C33.4816 7.98863 33.4577 7.9063 33.3554 7.96462C33.2531 8.02293 33.2838 8.11554 33.3043 8.20472C33.3247 8.2939 33.5123 8.36251 33.468 8.50657C33.3486 8.5786 33.2292 8.44826 33.0997 8.5443C32.7075 8.829 32.3154 9.13427 31.7698 9.08625C31.7289 9.0795 31.6869 9.08796 31.6518 9.11006C31.6166 9.13215 31.5907 9.16637 31.5788 9.20631C31.5788 9.27834 31.6368 9.32293 31.6879 9.36409C31.8277 9.47728 31.9812 9.58361 32.1142 9.7071C32.2015 9.78018 32.2579 9.88401 32.2718 9.99743C32.2858 10.1109 32.2562 10.2254 32.1892 10.3177C32.0767 10.4892 31.8482 10.4068 31.6777 10.3417C31.5072 10.2765 31.3571 10.1976 31.1935 10.153C30.9479 10.0878 30.7877 10.153 30.8525 10.4343C30.8969 10.6601 30.9152 10.8903 30.907 11.1203C30.907 11.4324 30.8149 11.8063 31.3435 11.8063C31.3674 11.8063 31.3878 11.8543 31.4117 11.8783C31.7688 12.0113 32.1527 12.0549 32.5302 12.0052C32.5776 11.986 32.6195 11.9552 32.6522 11.9157C32.6849 11.8762 32.7074 11.8292 32.7177 11.7789C32.7433 11.6451 32.7962 11.518 32.8731 11.4059C32.95 11.2937 33.0492 11.1988 33.1645 11.1271C33.2023 11.1032 33.2332 11.0697 33.2542 11.03C33.2751 10.9902 33.2853 10.9457 33.2838 10.9008C33.2838 10.6778 33.4066 10.7087 33.56 10.7773C33.7135 10.8459 33.8362 10.9728 33.9965 10.8082C34.2352 10.5646 34.4091 10.695 34.5455 10.9111C34.6775 11.1492 34.8802 11.3399 35.1252 11.4564C35.382 11.5845 35.6024 11.7756 35.7663 12.0121C35.7948 12.0458 35.8154 12.0854 35.8267 12.1282C35.8379 12.1709 35.8394 12.2157 35.8311 12.2591C35.7834 12.3791 35.6742 12.2591 35.5924 12.2591C35.5106 12.2591 35.3912 12.2076 35.3367 12.3002C35.2821 12.3928 35.4083 12.4374 35.4662 12.4958C35.6981 12.7118 35.8754 12.6432 36.0562 12.4237C36.1081 12.3798 36.1485 12.3237 36.1738 12.2604C36.199 12.197 36.2083 12.1284 36.2009 12.0605C36.1935 11.9927 36.1696 11.9278 36.1312 11.8714C36.0929 11.8151 36.0413 11.7692 35.9812 11.7377C35.5851 11.4503 35.2174 11.1252 34.8831 10.767C34.8286 10.719 34.7945 10.6572 34.8831 10.568C35.2241 10.8184 35.5344 11.0826 35.8754 11.3192C36.1487 11.482 36.37 11.7201 36.5131 12.0052C36.6597 12.3483 37.0792 12.4958 37.1951 12.8593C37.2021 12.8786 37.2135 12.896 37.2285 12.91C37.2434 12.924 37.2614 12.9342 37.281 12.9399C37.3006 12.9456 37.3213 12.9466 37.3413 12.9427C37.3613 12.9388 37.3802 12.9302 37.3963 12.9177C37.4228 12.8955 37.44 12.8641 37.4444 12.8298C37.4489 12.7954 37.4402 12.7606 37.4202 12.7324C37.3848 12.6755 37.354 12.6159 37.3281 12.5541C37.3008 12.4717 37.1167 12.4031 37.2497 12.314C37.3827 12.2248 37.4372 12.1184 37.6146 12.2351C37.6437 12.263 37.6789 12.2838 37.7173 12.2957C37.7558 12.3077 37.7965 12.3104 37.8362 12.3037C37.8759 12.2971 37.9136 12.2812 37.9461 12.2574C37.9787 12.2336 38.0052 12.2024 38.0238 12.1665C38.0579 12.1997 38.0835 12.2408 38.0984 12.2862C38.1132 12.3316 38.1169 12.38 38.109 12.4271C38.0238 12.5609 37.8601 12.3551 37.768 12.506C37.8498 12.6192 37.9351 12.7359 38.0135 12.849C38.092 12.9622 38.1772 13.1166 38.2454 13.2572C38.3136 13.3979 38.3784 13.3979 38.4637 13.3773ZM31.0264 7.47755C31.0087 7.4879 30.9888 7.49379 30.9684 7.4947C30.3853 7.37121 30.3103 7.43295 30.3648 7.98177C30.3648 8.13612 30.4433 8.32477 30.6103 8.25274C30.7774 8.18071 31.1628 8.35565 31.0673 7.94404C31.0511 7.89513 31.0517 7.84216 31.069 7.79363C31.0863 7.74511 31.1193 7.70385 31.1628 7.67649C31.2651 7.61818 31.364 7.7005 31.4356 7.7691C31.5072 7.8377 31.4901 7.9509 31.4049 8.02979C31.3196 8.10868 31.248 8.16699 31.2992 8.25617C31.4288 8.48256 31.4322 8.85644 31.8857 8.72266C31.9896 8.71215 32.0943 8.73368 32.1858 8.78441C32.3938 8.88045 32.3767 8.68836 32.4449 8.60947C32.5131 8.53058 32.4688 8.45169 32.3631 8.38309C32.0109 8.09397 31.7109 7.74585 31.4765 7.35406C31.3708 7.21686 31.2992 7.01105 31.1116 7.05908C30.8593 7.11396 31.0502 7.30947 31.0468 7.44667C31.0468 7.46725 31.0332 7.47755 31.0264 7.48784V7.47755ZM12.752 15.3324C12.5439 15.3016 12.3315 15.3376 12.145 15.4353C12.0529 15.5005 11.8824 15.5725 11.9643 15.7132C12.0461 15.8538 12.1655 15.7132 12.2609 15.6789C12.5576 15.5245 12.8236 15.6789 13.0862 15.7749C13.2362 15.8195 13.4613 15.9052 13.3522 16.1591C13.3487 16.1699 13.348 16.1814 13.3501 16.1926C13.3521 16.2038 13.357 16.2142 13.3641 16.2231C13.3712 16.2319 13.3803 16.2389 13.3908 16.2433C13.4012 16.2476 13.4125 16.2494 13.4238 16.2483C13.7136 16.2483 13.9932 16.3855 14.2831 16.31C14.4331 16.2723 14.5968 16.1762 14.3956 16.0493C13.8909 15.7303 13.4204 15.3187 12.752 15.3324ZM21.1816 8.33164V8.30762H21.3282C21.5158 8.30762 21.6999 8.27332 21.734 8.06752C21.7681 7.86171 21.6897 7.72451 21.4374 7.72451C21.3734 7.71929 21.3139 7.68979 21.2708 7.64201C21.2278 7.59423 21.2044 7.53174 21.2055 7.46726C21.2055 7.22372 21.0657 7.26831 20.9463 7.37121C20.7459 7.54028 20.5557 7.72125 20.3768 7.91317C20.237 8.06752 20.2984 8.17728 20.503 8.21501C20.7076 8.25274 20.9531 8.29047 21.1816 8.33164ZM15.081 16.8794C15.2815 16.8565 15.4807 16.8233 15.6778 16.7799C15.8517 16.7353 15.937 16.629 15.7733 16.4678C15.5243 16.214 15.2004 16.286 14.8935 16.2654C14.6753 16.2654 14.6616 16.3855 14.6275 16.533C14.6105 16.6256 14.5013 16.6016 14.4229 16.6084C14.3445 16.6153 14.1774 16.6084 14.2013 16.7422C14.2251 16.876 14.3718 16.8897 14.4604 16.8588C14.6653 16.8086 14.8799 16.8157 15.081 16.8794ZM17.4101 2.05802C17.11 2.03401 16.9702 2.26383 16.7281 2.30156C16.6667 2.30156 16.5781 2.27412 16.5542 2.35987C16.5303 2.44562 16.6156 2.46963 16.6565 2.51765C16.6767 2.54643 16.7031 2.5703 16.7337 2.58752C16.7642 2.60473 16.7983 2.61486 16.8332 2.61716C16.8682 2.61946 16.9032 2.61388 16.9358 2.60082C16.9683 2.58775 16.9976 2.56754 17.0214 2.54166C17.3353 2.35136 17.6825 2.22329 18.0444 2.16435C18.1433 2.13348 18.2319 2.09918 18.208 1.99285C18.1842 1.88652 18.0648 1.91053 17.9796 1.92425C17.7886 1.96884 17.6181 2.20894 17.4101 2.05802ZM18.0717 17.7026C18.0367 17.5955 17.9811 17.4964 17.9079 17.4111C17.8348 17.3257 17.7456 17.2558 17.6454 17.2052C17.6311 17.1953 17.6148 17.1885 17.5977 17.1852C17.5806 17.1819 17.563 17.1822 17.5461 17.1861C17.5291 17.1899 17.5131 17.1973 17.4991 17.2077C17.4851 17.2181 17.4734 17.2312 17.4647 17.2464C17.4237 17.3219 17.4817 17.363 17.5431 17.4076C17.5978 17.434 17.6457 17.4726 17.6831 17.5206C17.7206 17.5686 17.7466 17.6245 17.7591 17.6842C17.7716 17.7439 17.7704 17.8057 17.7554 17.8648C17.7404 17.9239 17.7121 17.9787 17.6727 18.025C17.5995 18.1869 17.5139 18.3429 17.4169 18.4915C17.3521 18.567 17.4169 18.663 17.4647 18.7316C17.4708 18.7416 17.4793 18.7498 17.4895 18.7554C17.4996 18.7611 17.511 18.7641 17.5226 18.7641C17.5342 18.7641 17.5457 18.7611 17.5558 18.7554C17.566 18.7498 17.5745 18.7416 17.5806 18.7316C17.7634 18.4017 17.9274 18.0616 18.0717 17.7129V17.7026ZM28.8883 5.32689H29.127C29.2225 5.32689 29.3282 5.32689 29.352 5.20683C29.3759 5.08678 29.2634 5.06963 29.1884 5.02504C28.932 4.88989 28.6457 4.8226 28.3563 4.82952C28.3104 4.82059 28.2628 4.82892 28.2226 4.85295C28.1823 4.87697 28.1523 4.91502 28.1381 4.95987C28.1142 5.05248 28.1926 5.09707 28.2677 5.1348C28.4502 5.26224 28.6661 5.33264 28.8883 5.33718V5.32689ZM13.7614 15.0923C13.7614 14.8248 13.7784 14.6293 13.9694 14.5229C14.1603 14.4166 14.1978 14.3171 14.1228 14.1799C14.0478 14.0427 13.85 14.0804 13.717 14.101C13.5329 14.1319 13.5909 14.2794 13.625 14.3926C13.625 14.4509 13.6488 14.4955 13.5977 14.5401C13.3385 14.7493 13.5465 14.8865 13.7614 15.0923ZM19.9267 1.87623C20.0631 1.87623 20.2677 1.87623 20.2677 1.7253C20.2677 1.57438 20.0836 1.64984 19.9813 1.64641C19.6926 1.67169 19.4018 1.63426 19.1288 1.53665C19.0703 1.50934 19.0059 1.49723 18.9416 1.50142C18.8772 1.50562 18.815 1.52598 18.7605 1.56066C18.7025 1.59496 18.6445 1.64298 18.6616 1.72187C18.6786 1.80077 18.7468 1.78018 18.8014 1.78704L19.9267 1.87623ZM19.5448 1.07702C19.7528 1.07702 19.8858 0.929525 20.029 0.826623C20.0802 0.792322 20.0461 0.72715 20.0017 0.685989C19.8483 0.548786 19.6846 0.600238 19.5175 0.658549C19.4963 0.664542 19.4758 0.672583 19.4561 0.682559C19.3436 0.737441 19.1901 0.785462 19.214 0.926095C19.2379 1.06673 19.4254 1.029 19.5448 1.07702ZM16.7861 16.7491C16.6838 16.581 16.4723 16.5467 16.2848 16.4952C16.162 16.4609 16.0256 16.533 16.0529 16.6599C16.0972 16.8828 16.3462 16.8622 16.5167 16.924C16.6292 16.9686 16.7417 16.924 16.7861 16.7491ZM13.5227 16.9308C13.6113 16.9034 13.792 16.9857 13.7682 16.8039C13.7443 16.6221 13.5977 16.6118 13.4476 16.6118C13.2976 16.6118 13.1919 16.6118 13.1987 16.7696C13.2055 16.9274 13.3863 16.924 13.5227 16.9308ZM34.6922 11.7274C34.6546 11.5936 34.6444 11.4221 34.433 11.3844C34.3171 11.3844 34.2523 11.4427 34.2795 11.549C34.3205 11.7103 34.3853 11.8921 34.5933 11.8921C34.7092 11.9264 34.6922 11.82 34.6922 11.7274ZM27.9062 17.7438C28.0051 17.7438 28.1483 17.8192 28.1688 17.6443C28.1724 17.6246 28.1708 17.6042 28.1641 17.5853C28.1574 17.5664 28.1459 17.5497 28.1306 17.5368C28.1153 17.5239 28.0969 17.5153 28.0773 17.5118C28.0576 17.5084 28.0374 17.5104 28.0187 17.5174C27.9062 17.5688 27.6948 17.4934 27.6777 17.6786C27.6811 17.8055 27.8073 17.7609 27.9062 17.7438ZM33.6282 11.453C33.5702 11.4251 33.5068 11.4105 33.4426 11.4101C33.3783 11.4097 33.3147 11.4236 33.2564 11.4508C33.1981 11.478 33.1465 11.5178 33.1052 11.5674C33.064 11.617 33.0341 11.6752 33.0178 11.7377C33.2478 11.7164 33.4634 11.6158 33.6282 11.453ZM38.1602 13.5111C38.1022 13.2881 37.9044 13.3293 37.7612 13.2847C37.6862 13.2607 37.6111 13.3121 37.6487 13.391C37.7134 13.5454 37.8703 13.5659 38.0204 13.5797C38.0851 13.5934 38.167 13.6037 38.1602 13.5213V13.5111ZM17.093 16.5981C16.9532 16.6873 17.0486 16.8279 17.0384 16.9411C17.0282 17.0543 17.0827 17.2224 17.2225 17.195C17.3624 17.1675 17.2225 17.0372 17.2225 16.9549C17.2225 16.8725 17.2225 16.8039 17.2225 16.7285C17.2225 16.653 17.1748 16.6564 17.093 16.6256V16.5981ZM27.5379 17.0646C27.5379 17.0063 27.4254 16.9686 27.3367 16.9892C27.248 17.0097 27.2174 17.0235 27.2378 17.0921C27.2583 17.1607 27.3606 17.1709 27.4356 17.1641C27.5106 17.1572 27.5447 17.1504 27.5379 17.0921V17.0646Z" fill="url(#paint0_linear_24_5)"/>
<defs>
<linearGradient id="paint0_linear_24_5" x1="0.527016" y1="26.1475" x2="38.7126" y2="26.1475" gradientUnits="userSpaceOnUse">
<stop stop-color="#03B2A4"/>
<stop offset="0.0001" stop-color="#03B2A4"/>
<stop offset="1" stop-color="#034A45"/>
</linearGradient>
</defs>
</svg>
