<svg width="238" height="52" viewBox="0 0 238 52" fill="none" xmlns="http://www.w3.org/2000/svg">
<path d="M135.464 13.3773C135.584 13.6734 135.667 13.9833 135.713 14.3C135.621 14.3193 135.527 14.3189 135.436 14.2988C135.345 14.2787 135.259 14.2394 135.184 14.1833C134.983 14.0736 134.795 13.9364 134.587 13.8403C134.301 13.71 134.205 13.7786 134.246 14.0667C134.274 14.2485 134.195 14.3514 134.025 14.3C133.8 14.2348 133.527 14.1971 133.411 13.957C133.352 13.8532 133.273 13.7622 133.178 13.6893C133.084 13.6163 132.977 13.5627 132.862 13.5316C132.497 13.391 132.18 13.2332 132.139 12.7736C132.135 12.7094 132.118 12.6469 132.087 12.5904C132.057 12.5339 132.014 12.4849 131.963 12.4468C131.911 12.4088 131.852 12.3827 131.789 12.3704C131.727 12.3581 131.662 12.3599 131.6 12.3757C131.333 12.3885 131.065 12.356 130.809 12.2797C130.494 12.1975 130.161 12.2179 129.858 12.338C129.643 12.4203 129.38 12.5541 129.159 12.3894C129.104 12.3342 129.038 12.2931 128.964 12.2699C128.891 12.2466 128.813 12.2419 128.737 12.2562C128.661 12.2704 128.59 12.3031 128.53 12.3515C128.469 12.3998 128.422 12.4623 128.391 12.5335C128.372 12.5622 128.345 12.5848 128.313 12.5987C128.175 12.6511 128.06 12.7516 127.989 12.8819C127.919 13.0121 127.897 13.1635 127.927 13.3087C127.931 13.3925 127.915 13.4759 127.881 13.5526C127.848 13.6293 127.797 13.6972 127.733 13.7512C127.392 14.1353 127.027 14.5195 126.71 14.9242C126.393 15.329 126.185 15.8195 126.461 16.3786C126.541 16.529 126.575 16.6997 126.558 16.8694C126.542 17.0391 126.476 17.2001 126.369 17.3322C126.307 17.4049 126.267 17.4935 126.253 17.588C126.238 17.6825 126.25 17.7792 126.287 17.8673C126.33 17.9775 126.33 18.1 126.287 18.2103C126.192 18.4366 126.287 18.5773 126.485 18.6836C126.781 18.8572 127.003 19.1344 127.109 19.4622C127.312 19.9576 127.659 20.3796 128.105 20.6731C128.192 20.7592 128.309 20.8074 128.43 20.8074C128.552 20.8074 128.669 20.7592 128.756 20.6731C128.81 20.6278 128.873 20.5946 128.94 20.5757C129.008 20.5568 129.079 20.5525 129.148 20.5633C129.653 20.6461 130.17 20.536 130.598 20.2546C130.723 20.1956 130.856 20.154 130.993 20.1311C131.269 20.0694 131.494 20.1311 131.556 20.4227C131.6 20.6319 131.716 20.6559 131.897 20.577C132.282 20.3952 132.108 21.0984 132.487 20.92C132.504 20.9578 132.538 20.9955 132.538 21.0366C132.536 21.092 132.525 21.1467 132.504 21.1979C132.466 21.3008 132.415 21.4037 132.384 21.51C132.309 21.7741 132.132 22.0725 132.343 22.3058C132.555 22.539 132.531 22.8306 132.838 22.9369C132.91 22.9609 132.858 23.033 132.838 23.081C132.817 23.129 132.749 23.2559 132.766 23.3348C132.83 23.6802 132.823 24.0351 132.744 24.3774C132.665 24.7197 132.517 25.042 132.309 25.3242C132.308 25.3437 132.308 25.3631 132.309 25.3826C131.934 26.2023 132.245 27.0976 132.064 27.9208C132.063 27.9665 132.077 28.0112 132.105 28.0477C132.158 28.1062 132.198 28.175 132.224 28.2498C132.249 28.3247 132.259 28.404 132.252 28.4828C132.246 28.5617 132.224 28.6383 132.186 28.7081C132.149 28.7778 132.098 28.8391 132.037 28.8881C132.016 28.9042 132 28.9244 131.988 28.9474C131.976 28.9704 131.969 28.9956 131.967 29.0215C131.966 29.0474 131.97 29.0733 131.979 29.0976C131.988 29.1218 132.002 29.144 132.02 29.1625C132.108 29.238 132.193 29.1625 132.265 29.1008C132.742 28.7921 133.288 28.5931 133.711 28.1952C133.523 29.3944 133.254 30.5794 132.906 31.7419C132.899 31.7877 132.882 31.8314 132.858 31.8706C132.833 31.9097 132.801 31.9435 132.763 31.9698C132.725 31.996 132.682 32.0143 132.637 32.0235C132.592 32.0327 132.545 32.0326 132.5 32.0232C132.159 31.9786 132.033 32.181 131.972 32.4657C131.852 33.0213 131.869 33.5942 131.781 34.1533C131.764 34.2596 131.781 34.4037 131.634 34.4174C131.488 34.4311 131.484 34.2905 131.447 34.2047C131.348 33.9715 131.256 33.7314 131.147 33.4604C131.083 33.5129 131.033 33.5797 131 33.6553C130.966 33.731 130.951 33.8134 130.956 33.896C130.925 34.4723 130.887 35.052 130.877 35.6111C130.843 37.2369 130.836 38.8628 130.792 40.4852C130.771 41.1335 130.768 41.7818 130.693 42.43C130.682 42.6649 130.633 42.8964 130.55 43.1161C130.516 43.1847 130.488 43.2739 130.396 43.2841C130.304 43.2944 130.239 43.2018 130.195 43.1264C129.978 42.7209 129.869 42.2661 129.878 41.8058C129.878 40.4337 129.878 39.0617 129.858 37.6657C129.868 36.9045 129.719 36.1496 129.421 35.4498C129.315 35.22 129.23 34.9182 128.913 34.9147C128.596 34.9113 128.483 35.1994 128.378 35.4293C127.981 36.1928 127.748 37.032 127.696 37.8921C127.7 38.6029 127.547 39.3058 127.249 39.9501C127.189 40.0729 127.114 40.1881 127.027 40.2931C126.936 40.414 126.811 40.5054 126.669 40.556C126.526 40.6066 126.372 40.6142 126.226 40.5778C126.087 40.5452 125.963 40.466 125.874 40.3532C125.785 40.2404 125.738 40.1007 125.738 39.957C125.715 39.4674 125.758 38.9768 125.868 38.4992C125.961 37.973 125.996 37.4381 125.974 36.9042C125.974 36.6984 125.974 36.4377 125.755 36.3485C125.537 36.2593 125.387 36.4857 125.237 36.6126C125.141 36.6936 125.051 36.7819 124.968 36.8768C124.67 37.275 124.286 37.5994 123.844 37.8248C123.403 38.0501 122.915 38.1706 122.42 38.1768C122.047 38.1846 121.68 38.2723 121.343 38.434C121.066 38.5254 120.835 38.7223 120.7 38.9827C120.566 39.243 120.538 39.546 120.623 39.8266C120.956 41.4113 120.942 43.05 120.582 44.6287C120.523 44.9875 120.349 45.3172 120.088 45.5686C120.049 45.6007 120.022 45.6438 120.008 45.6923C119.995 45.7407 119.996 45.7921 120.013 45.8395C120.045 45.9923 120.066 46.147 120.078 46.3026C120.095 46.4878 120.04 46.6456 119.818 46.6628C119.597 46.6799 119.477 46.5221 119.522 46.3438C119.672 45.867 119.457 45.5994 119.048 45.3696C118.639 45.1398 118.632 44.7831 118.618 44.4058C118.634 43.449 118.564 42.4927 118.41 41.5485C118.199 40.5709 117.697 39.8095 116.637 39.4905C116.312 39.4035 115.977 39.3608 115.641 39.3636C114.722 39.3637 113.803 39.2983 112.893 39.168C112.71 39.1368 112.53 39.0932 112.354 39.0377C112.235 39.0151 112.13 38.9479 112.059 38.8497C111.988 38.7516 111.957 38.6299 111.972 38.5095C111.991 38.3158 111.946 38.1211 111.844 37.9559C111.742 37.7907 111.587 37.6645 111.406 37.5971C110.992 37.3516 110.522 37.2192 110.042 37.2129C109.869 37.2077 109.698 37.2567 109.554 37.3532C109.41 37.4497 109.299 37.5888 109.237 37.7514C109.083 38.1596 109.013 38.5947 109.029 39.0308C109.03 39.3308 108.991 39.6296 108.913 39.9192C108.893 39.9913 108.852 40.0839 108.756 40.0736C108.661 40.0633 108.685 39.9501 108.678 39.8815C108.593 38.8833 108.593 37.8783 108.32 36.9042C108.217 36.5269 108.119 36.1153 107.61 36.0021C106.928 35.8512 106.645 35.9781 106.437 36.5989C106.206 37.4019 106.069 38.2298 106.032 39.0651C105.817 41.6514 105.851 44.2446 105.766 46.8343C105.764 48.3273 105.878 49.8182 106.107 51.2934C106.107 51.4443 106.25 51.5849 106.107 51.7496C106.043 51.8473 105.951 51.922 105.842 51.9627C105.733 52.0034 105.615 52.0081 105.503 51.976C105.387 51.9451 105.287 51.8707 105.223 51.768C105.16 51.6653 105.138 51.5422 105.162 51.4237C105.285 50.5868 105.401 49.7533 105.537 48.9232C105.599 48.2913 105.571 47.6539 105.455 47.0298C105.278 45.3936 105.114 43.7541 104.859 42.1282C104.565 40.2588 104.289 38.386 103.6 36.5989C103.45 36.1229 103.192 35.6885 102.847 35.3298C102.735 35.1958 102.576 35.1099 102.403 35.0897C101.152 35.0897 100.845 34.2287 100.732 33.3746C100.676 32.5974 100.659 31.8178 100.681 31.0388C100.701 30.8042 100.662 30.5685 100.569 30.3527C100.388 30.3939 100.378 30.5585 100.316 30.6958C100.18 31.0534 99.9877 31.3868 99.747 31.6836C99.4059 32.0266 99.1468 31.9855 98.9899 31.5361C98.7168 30.6417 98.5307 29.7227 98.4341 28.7921C98.2022 27.1731 98.0181 25.5472 97.9124 23.9179C97.7998 22.1274 97.527 20.3712 97.527 18.6013C97.5187 17.9915 97.5517 17.3818 97.6259 16.7765C97.814 15.3588 98.1512 13.9653 98.6319 12.6192C98.9728 11.6773 99.3949 10.7671 99.8936 9.89918C99.9959 9.71739 100.054 9.50472 100.262 9.39153C100.299 9.56303 100.398 9.50472 100.487 9.44298C100.659 9.32958 100.825 9.20707 100.985 9.07596C101.786 8.41316 102.65 7.82963 103.563 7.33348C103.755 7.22255 103.976 7.17236 104.197 7.18942C104.821 7.23401 104.934 7.42952 104.586 7.93718C104.406 8.16341 104.279 8.42707 104.214 8.70894C104.19 8.85301 104.18 8.91818 104.023 8.95248C103.966 8.9631 103.915 8.99384 103.879 9.03914C103.843 9.08444 103.824 9.1413 103.825 9.19944C103.825 9.32979 103.917 9.39496 104.033 9.43612C104.149 9.47728 104.224 9.43612 104.218 9.54245C104.21 9.5883 104.187 9.63048 104.154 9.66308C104.121 9.69568 104.079 9.71707 104.033 9.72425C103.617 9.79628 103.46 10.1359 103.218 10.4103C102.905 10.7533 102.72 11.158 102.407 11.477C102.322 11.5476 102.253 11.6361 102.206 11.7363C102.159 11.8364 102.134 11.9459 102.134 12.0567C102.134 12.2899 102.151 12.5232 102.134 12.7427C102.115 12.8247 102.124 12.9108 102.16 12.9869C102.196 13.063 102.256 13.1244 102.332 13.1612C102.368 13.1782 102.4 13.2026 102.427 13.2328C102.453 13.263 102.473 13.2984 102.485 13.3367C102.498 13.3751 102.502 13.4155 102.498 13.4556C102.493 13.4956 102.481 13.5344 102.461 13.5694C102.311 13.9467 102.605 14.3343 102.431 14.7116C102.428 14.7285 102.431 14.7456 102.437 14.7613C102.444 14.7769 102.455 14.7906 102.468 14.8008C102.71 14.9414 102.697 15.1952 102.761 15.4113C102.794 15.5089 102.855 15.5948 102.935 15.6583C102.954 15.6804 102.981 15.6947 103.01 15.6985C103.039 15.7023 103.068 15.6953 103.092 15.6789C103.115 15.6629 103.131 15.6389 103.137 15.6117C103.144 15.5845 103.14 15.5559 103.126 15.5314C102.935 15.0169 103.021 14.4475 102.785 13.9432C102.734 13.8369 102.71 13.6414 102.911 13.6277C103.113 13.614 103.058 13.7923 103.068 13.9089C103.137 14.422 103.324 14.9118 103.614 15.3393C103.725 15.4837 103.806 15.6495 103.851 15.8265C103.896 16.0034 103.905 16.1878 103.876 16.3683C103.846 16.4987 103.836 16.605 103.962 16.7113C104.358 17.0408 104.788 17.3271 105.244 17.5654C105.349 17.6267 105.468 17.6616 105.59 17.667C105.711 17.6723 105.833 17.6481 105.943 17.5963C106.037 17.5402 106.148 17.5194 106.256 17.5376C106.364 17.5558 106.462 17.6118 106.533 17.6958C106.805 17.9775 107.137 18.1923 107.505 18.3235C107.592 18.333 107.675 18.3674 107.744 18.4227C107.813 18.4779 107.865 18.5518 107.894 18.6356C108.014 18.9432 108.198 19.2217 108.433 19.4528C108.668 19.684 108.949 19.8625 109.258 19.9768C109.438 20.0522 109.575 20.0591 109.622 19.8361C109.646 19.7195 109.691 19.6132 109.844 19.6372C109.9 19.6472 109.951 19.676 109.989 19.719C110.027 19.762 110.049 19.8166 110.052 19.8738C110.058 19.9901 110.077 20.1053 110.11 20.2169C110.214 20.4343 110.259 20.6751 110.242 20.9156C110.226 21.1561 110.147 21.3881 110.015 21.5889C109.82 21.8907 109.646 22.2063 109.445 22.5047C109.353 22.6454 109.319 22.7723 109.445 22.8958C109.51 22.9575 109.552 23.0403 109.564 23.1299C109.575 23.2194 109.555 23.3101 109.506 23.3863C109.449 23.4769 109.418 23.5822 109.418 23.6898C109.418 23.7974 109.449 23.9028 109.506 23.9934C109.943 24.552 110.289 25.1773 110.529 25.8456C110.62 26.0137 110.729 26.1712 110.853 26.3155C111.252 26.9192 111.876 27.3068 112.374 27.8248C112.575 27.9964 112.726 28.2189 112.813 28.4692C112.899 28.7195 112.917 28.9885 112.865 29.2483C112.845 29.3686 112.845 29.4915 112.865 29.6118C112.971 30.2979 113.063 30.953 113.206 31.615C113.387 32.4863 113.356 33.4089 113.991 34.1704C114.144 34.3522 114.376 34.6781 114.195 34.9593C114.167 34.989 114.145 35.025 114.133 35.0644C114.12 35.1038 114.117 35.1456 114.123 35.1865C114.13 35.2274 114.145 35.2663 114.169 35.3C114.193 35.3338 114.224 35.3616 114.26 35.3812C114.492 35.581 114.658 35.8464 114.737 36.1427C114.799 36.3237 114.916 36.4809 115.07 36.5927C115.225 36.7045 115.41 36.7654 115.6 36.767C115.774 36.767 115.795 36.767 115.774 36.9248C115.733 37.2369 115.89 37.3913 116.221 37.3981C116.46 37.3887 116.697 37.3483 116.927 37.2781C116.586 37.0757 116.32 36.9008 116.037 36.743C115.967 36.7055 115.906 36.6541 115.856 36.5921C115.807 36.5301 115.77 36.4587 115.749 36.3821C115.727 36.3055 115.722 36.2254 115.732 36.1465C115.742 36.0677 115.768 35.9917 115.808 35.9232C115.844 35.8867 115.871 35.8431 115.889 35.7953C115.907 35.7475 115.915 35.6964 115.912 35.6454C115.909 35.5944 115.896 35.5445 115.872 35.499C115.849 35.4536 115.817 35.4134 115.778 35.3812C115.72 35.3228 115.68 35.2498 115.661 35.1701C115.641 35.0903 115.644 35.0068 115.668 34.9285C115.716 34.6129 116.009 34.2699 115.576 33.9646C115.934 34.0607 116.023 33.8514 116.044 33.6216C116.064 33.3918 116.153 33.3781 116.347 33.3712C116.749 33.3712 116.906 33.1311 116.787 32.7641C116.739 32.6387 116.685 32.5162 116.623 32.3971C116.593 32.325 116.521 32.253 116.569 32.1775C116.616 32.1021 116.753 32.1501 116.818 32.1775C117.159 32.3388 117.356 32.1775 117.527 31.9203C117.773 31.605 117.979 31.2592 118.137 30.8913C118.295 30.5817 118.359 30.2322 118.321 29.8863C118.313 29.8357 118.319 29.7838 118.337 29.7361C118.356 29.6885 118.387 29.6467 118.427 29.6153C118.734 29.3152 119.124 29.1155 119.546 29.0425C119.624 29.0391 119.701 29.0148 119.768 28.972C119.834 28.9293 119.888 28.8695 119.924 28.7989C120.345 28.174 120.557 27.4301 120.528 26.6757C120.504 26.339 120.56 26.0014 120.69 25.6904C120.821 25.3793 121.022 25.1035 121.278 24.8852C121.339 24.82 121.411 24.7583 121.469 24.6897C121.546 24.6106 121.604 24.5143 121.638 24.4086C121.671 24.3028 121.68 24.1907 121.662 24.0811C121.644 23.9715 121.601 23.8677 121.536 23.7779C121.471 23.6882 121.386 23.6151 121.288 23.5646C120.589 23.201 119.856 22.8786 119.01 23.2216C119.054 23.1222 119.06 23.0102 119.027 22.9066C118.995 22.803 118.926 22.715 118.833 22.6591C118.725 22.5911 118.598 22.5588 118.471 22.5668C118.344 22.5748 118.222 22.6227 118.124 22.7037C118.049 22.7517 117.963 22.7928 117.882 22.8374C117.8 22.882 117.745 22.9026 117.701 22.8374C117.656 22.7723 117.721 22.714 117.786 22.6934C117.95 22.6488 117.97 22.5356 117.933 22.4053C117.919 22.3489 117.885 22.2997 117.837 22.2674C117.789 22.235 117.731 22.2218 117.673 22.2303C117.578 22.2303 117.452 22.2646 117.486 22.0828C117.571 21.6541 117.322 21.3076 117.101 20.9818C116.999 20.8288 116.858 20.7062 116.693 20.6265C116.528 20.5469 116.345 20.5132 116.163 20.529C115.929 20.5345 115.699 20.4729 115.499 20.3514C115.299 20.2299 115.138 20.0535 115.034 19.843C115.004 19.7702 114.956 19.7064 114.894 19.6578C114.553 19.4691 114.553 19.2736 114.85 19.0506C114.894 19.0163 114.939 18.958 114.901 18.9031C114.864 18.8483 114.789 18.8757 114.724 18.9031C114.383 19.0369 114.09 19.3388 113.636 19.205C113.243 19.1465 112.867 19.0063 112.531 18.7934C112.333 18.6253 112.173 18.6493 112.047 18.8791C111.996 19.0157 111.965 19.159 111.955 19.3045C111.955 19.3662 111.924 19.452 111.836 19.4382C111.802 19.4308 111.773 19.4106 111.753 19.3818C111.734 19.353 111.727 19.3179 111.733 19.2839C111.741 19.1057 111.784 18.9308 111.859 18.7694C111.904 18.7076 112.037 18.6356 111.907 18.5533C111.86 18.5282 111.807 18.5193 111.754 18.528C111.702 18.5367 111.654 18.5624 111.617 18.6013C111.518 18.6973 111.437 18.8791 111.341 18.886C110.966 18.9066 110.86 19.1878 110.686 19.4108C110.553 19.5754 110.417 19.6646 110.195 19.4965C110.101 19.4374 109.993 19.4035 109.882 19.3981C109.771 19.3927 109.661 19.416 109.561 19.4657C109.09 19.6372 108.753 19.4108 108.773 18.9271C108.781 18.6156 108.81 18.3049 108.862 17.9976C108.913 17.6958 108.743 17.5654 108.487 17.4968C108.374 17.4786 108.259 17.4786 108.146 17.4968C107.873 17.5174 107.822 17.4145 107.911 17.1812C108.037 16.8588 108.149 16.5295 108.252 16.2002C108.354 15.8709 108.252 15.8161 107.941 15.8984C107.823 15.9202 107.712 15.9689 107.615 16.0409C107.519 16.1128 107.44 16.2061 107.385 16.3134C107.333 16.455 107.24 16.5781 107.119 16.6676C106.998 16.7571 106.853 16.8093 106.703 16.8176C106.562 16.8211 106.422 16.7918 106.294 16.7322C106.166 16.6726 106.054 16.5841 105.965 16.4738C105.876 16.3634 105.814 16.234 105.783 16.0956C105.752 15.9571 105.753 15.8134 105.786 15.6754C105.905 15.3044 106.048 14.9412 106.212 14.5881C106.376 14.0804 106.799 13.8575 107.235 13.6345C107.347 13.5691 107.475 13.5369 107.604 13.5417C107.733 13.5466 107.859 13.5883 107.965 13.662C108.005 13.699 108.052 13.7261 108.104 13.7411C108.156 13.756 108.21 13.7584 108.263 13.748C108.316 13.7377 108.366 13.7148 108.408 13.6814C108.451 13.6479 108.485 13.6048 108.507 13.5556C108.532 13.4939 108.572 13.4389 108.622 13.3951C108.672 13.3512 108.731 13.3197 108.795 13.3031C108.86 13.2864 108.927 13.2851 108.992 13.2991C109.057 13.3132 109.117 13.3423 109.169 13.3841C109.257 13.4129 109.349 13.4257 109.442 13.4219C109.81 13.4425 109.933 13.5899 109.865 13.9432C109.822 14.1051 109.822 14.2753 109.865 14.4372C109.909 14.5778 109.953 14.7356 110.141 14.7287C110.328 14.7219 110.339 14.5607 110.386 14.4372C110.43 14.3127 110.437 14.1781 110.407 14.0496C110.35 13.8582 110.332 13.6572 110.354 13.4586C110.376 13.2601 110.438 13.0681 110.535 12.8939C110.632 12.7198 110.764 12.5672 110.921 12.4452C111.078 12.3231 111.258 12.2342 111.45 12.1836C111.648 12.1336 111.826 12.0252 111.963 11.8724C112.099 11.7196 112.186 11.5293 112.214 11.3261C112.249 11.1371 112.332 10.9603 112.454 10.8126C112.577 10.6648 112.735 10.5511 112.913 10.4823C113.343 10.2731 113.595 9.83058 114.09 9.72425C114.141 9.72425 114.182 9.60419 114.212 9.53559C114.407 9.08282 115.317 8.70208 115.829 8.87702L115.61 9.04166C115.539 9.09311 115.399 9.12055 115.454 9.22346C115.508 9.32636 115.638 9.26462 115.726 9.22346C115.992 9.08625 116.262 8.95248 116.521 8.80842C116.603 8.76383 116.763 8.76382 116.715 8.61976C116.668 8.4757 116.555 8.56145 116.466 8.55459C116.003 8.53058 115.893 8.37966 116.101 7.99892C116.19 7.83427 116.153 7.77939 115.979 7.75538C115.914 7.75538 115.835 7.77253 115.788 7.63876C115.989 7.60446 116.187 7.5633 116.385 7.53929C116.917 7.50477 117.44 7.38192 117.933 7.1757C118.041 7.13921 118.138 7.07615 118.215 6.99228C118.292 6.9084 118.348 6.80638 118.376 6.69549C118.396 6.59602 118.376 6.51026 118.277 6.48282C118.178 6.46593 118.084 6.42834 118.001 6.37251C117.918 6.31667 117.847 6.24384 117.794 6.15875C117.741 6.07366 117.706 5.97821 117.691 5.87862C117.677 5.77903 117.684 5.67753 117.711 5.58071C117.71 5.42631 117.694 5.27237 117.663 5.12108C117.663 4.94958 117.558 4.94615 117.431 5.01818C117.24 5.12794 117.056 5.24456 116.865 5.36119C116.78 5.40921 116.671 5.47438 116.579 5.38177C116.487 5.28916 116.579 5.18625 116.63 5.10736C116.681 5.02847 116.794 4.85697 116.702 4.70947C116.562 4.48652 115.604 4.34588 115.402 4.52768C115.105 4.78727 114.902 5.13807 114.823 5.52583C114.797 5.70396 114.725 5.87214 114.614 6.01358C114.504 6.15503 114.358 6.26478 114.192 6.3319C114.055 6.38726 113.931 6.47079 113.829 6.57712C113.726 6.68345 113.646 6.81023 113.595 6.94931C113.595 6.98018 113.568 7.00762 113.554 7.0385C113.546 7.06953 113.532 7.09863 113.513 7.12406C113.494 7.14948 113.469 7.17069 113.442 7.1864C113.414 7.20212 113.383 7.212 113.352 7.21547C113.32 7.21894 113.288 7.21591 113.258 7.20657C113.084 7.15855 113.114 7.03163 113.155 6.90815C113.196 6.78467 113.227 6.67148 113.278 6.56514C113.329 6.45881 113.278 6.32847 113.142 6.32161C112.849 6.26352 112.566 6.16663 112.299 6.03348C112.219 6.02266 112.144 5.98879 112.083 5.93597C112.021 5.88315 111.976 5.81361 111.953 5.73571C111.93 5.65782 111.93 5.57489 111.953 5.49688C111.975 5.41888 112.02 5.34913 112.081 5.29602C112.312 5.02641 112.597 4.808 112.917 4.65459C113.012 4.61 113.155 4.60314 113.2 4.53454C113.394 4.2224 113.769 4.28414 114.042 4.13665C114.096 4.10578 114.195 4.06119 114.223 4.13665C114.325 4.42821 114.485 4.34931 114.673 4.22583C114.708 4.20502 114.748 4.19404 114.789 4.19404C114.829 4.19404 114.869 4.20502 114.905 4.22583C115.003 4.27728 115.116 4.38361 115.177 4.20182C115.195 4.17041 115.206 4.13522 115.208 4.09904C115.21 4.06287 115.204 4.0267 115.189 3.99341C115.175 3.96012 115.153 3.93063 115.126 3.90726C115.098 3.8839 115.066 3.86731 115.031 3.85881C114.936 3.80233 114.825 3.77817 114.715 3.78991C114.605 3.80165 114.502 3.84865 114.42 3.92398C114.359 3.98573 114.287 4.02003 114.212 3.94799C114.189 3.93169 114.171 3.90822 114.162 3.88104C114.153 3.85386 114.152 3.82442 114.161 3.79707C114.188 3.72161 114.26 3.72161 114.332 3.71132C114.618 3.67359 114.905 3.61185 115.194 3.59813C115.377 3.59606 115.553 3.53083 115.694 3.41338C115.834 3.29594 115.93 3.13346 115.965 2.95327C116.006 2.82979 116.05 2.78177 116.173 2.79206C116.295 2.80459 116.418 2.76893 116.514 2.69259C116.532 2.67688 116.552 2.66498 116.574 2.65764C116.597 2.65031 116.62 2.64768 116.644 2.64994C116.667 2.65219 116.69 2.65927 116.71 2.67074C116.731 2.68221 116.749 2.69782 116.763 2.7166C116.961 2.9224 117.152 3.12821 117.346 3.33401C117.387 3.3786 117.435 3.42319 117.397 3.4815C117.379 3.50469 117.353 3.52032 117.324 3.52538C117.295 3.53044 117.265 3.52459 117.24 3.50894C117.177 3.46675 117.102 3.44569 117.026 3.44877C116.95 3.45185 116.877 3.4789 116.818 3.52609C116.628 3.68641 116.383 3.76633 116.136 3.74905C116.016 3.74905 115.795 3.77649 115.856 3.95485C115.917 4.13322 116.071 4.05433 116.197 3.99259C116.408 3.88282 116.538 3.92741 116.637 4.14008C116.688 4.23708 116.761 4.3213 116.848 4.38659C116.936 4.45187 117.038 4.49656 117.145 4.51739C117.278 4.55169 117.459 4.66145 117.564 4.51739C117.67 4.37332 117.394 4.34931 117.38 4.2224C117.382 4.19932 117.389 4.17693 117.401 4.15723C117.476 4.12293 117.53 4.15723 117.588 4.20525C117.646 4.25327 117.714 4.33559 117.8 4.28071C117.84 4.24901 117.869 4.20581 117.885 4.15682C117.9 4.10783 117.9 4.05535 117.885 4.00631C117.885 3.96515 117.861 3.92398 117.851 3.87939C117.841 3.8348 117.789 3.69074 117.882 3.63243C117.974 3.57412 118.035 3.64958 118.107 3.68045L118.294 3.76963C118.355 3.79624 118.423 3.7994 118.486 3.77852C118.549 3.75764 118.602 3.71418 118.635 3.65644C118.717 3.55354 118.662 3.46778 118.577 3.39575C118.427 3.25554 118.311 3.08321 118.236 2.89153C118.185 2.7852 118.13 2.68573 118.008 2.65485C117.691 2.57253 117.513 2.15406 117.097 2.31185C117.07 2.31185 117.019 2.27069 116.981 2.24325C116.895 2.15292 116.783 2.09234 116.66 2.07016C116.538 2.04798 116.411 2.06534 116.299 2.11976C116.207 2.16435 116.129 2.09575 116.044 2.05802C115.788 1.94483 115.249 2.2604 115.252 2.52451C115.251 2.56617 115.261 2.60738 115.281 2.6441C115.3 2.68081 115.329 2.71176 115.364 2.73391C115.399 2.75606 115.439 2.76864 115.481 2.77041C115.522 2.77219 115.563 2.7631 115.6 2.74404C115.699 2.72346 115.798 2.67201 115.87 2.82979C115.73 2.81411 115.59 2.83068 115.458 2.87825C115.326 2.92581 115.207 3.0031 115.109 3.1042C114.922 3.31 114.905 3.29971 114.84 3.04931C114.816 2.95327 114.727 2.94298 114.652 2.91897C114.577 2.89496 114.506 2.86066 114.529 2.75776C114.591 2.47992 114.427 2.59311 114.304 2.64113C114.004 2.75776 113.796 3.04931 113.411 2.98414C113.281 2.98414 113.189 3.11449 113.333 3.24483C113.401 3.30657 113.5 3.3443 113.397 3.45063C113.295 3.55697 113.234 3.57069 113.125 3.48836C113.015 3.40604 112.838 3.43005 112.688 3.42662C112.459 3.45135 112.228 3.43392 112.006 3.37517C112.122 3.23454 112.245 3.29285 112.347 3.29285C112.879 3.29285 113.203 2.86752 113.029 2.42161C113.023 2.40688 113.013 2.39406 113 2.3844C112.987 2.37474 112.972 2.36857 112.956 2.36649C112.941 2.36442 112.925 2.36651 112.91 2.37256C112.895 2.37862 112.882 2.38843 112.872 2.40103C112.689 2.50896 112.481 2.56586 112.269 2.56586C112.056 2.56586 111.848 2.50896 111.665 2.40103C111.611 2.37742 111.553 2.36523 111.495 2.36523C111.436 2.36523 111.378 2.37742 111.324 2.40103C110.947 2.54313 110.6 2.75486 110.301 3.0253C110.233 3.08361 110.148 3.14879 110.236 3.24826C110.325 3.34773 110.403 3.29971 110.478 3.24826C110.589 3.14623 110.719 3.06802 110.86 3.01844C111.171 2.91897 110.819 3.25169 111.041 3.26884C111.143 3.26884 111 3.31 110.986 3.31343C110.915 3.33058 110.843 3.35802 110.843 3.43348C110.843 3.50894 110.942 3.51237 111 3.53639C111.133 3.57861 111.274 3.59377 111.413 3.58098C111.481 3.58098 111.566 3.55011 111.604 3.61871C111.641 3.68731 111.556 3.75591 111.508 3.81079C111.46 3.86567 111.385 3.95142 111.304 3.89311C110.988 3.72821 110.635 3.65122 110.281 3.67016C109.555 3.60989 108.831 3.80643 108.235 4.22583C108.019 4.38466 107.764 4.48078 107.498 4.50367C106.032 4.65802 104.876 5.41264 103.747 6.21871C103.682 6.2633 103.6 6.32504 103.587 6.39021C103.532 6.63718 103.317 6.70235 103.13 6.81211C102.888 6.95617 102.598 7.04879 102.448 7.30947C102.448 7.30947 102.448 7.30947 102.424 7.30947C102.422 7.31499 102.422 7.3211 102.424 7.32662L102.444 7.29232H102.659C102.659 7.48098 102.472 7.50499 102.349 7.56673C101.853 7.83959 101.427 8.22476 101.104 8.69179C100.882 8.98232 100.59 9.21035 100.255 9.3538C100.628 8.6346 101.093 7.96799 101.64 7.37121C102.766 6.05684 104.047 4.88541 105.455 3.88282C106.306 3.29199 107.196 2.76023 108.119 2.29127C108.763 1.94826 109.462 1.73902 110.131 1.45776C110.411 1.3203 110.702 1.2056 111 1.11475C111.392 1.02214 111.801 0.970686 112.183 0.850633C113.039 0.572797 113.94 0.603668 114.809 0.421873C115.787 0.283202 116.778 0.256735 117.762 0.342982C118.295 0.327091 118.828 0.380119 119.348 0.500765C118.894 0.500765 118.441 0.500765 117.984 0.521346C117.834 0.521346 117.568 0.435594 117.561 0.596807C117.554 0.758021 117.824 0.679129 117.967 0.71343C118.11 0.747731 118.25 0.68599 118.352 0.826623C118.208 0.874818 118.054 0.884278 117.905 0.854063C117.633 0.854063 117.353 0.809472 117.169 1.05987C117.125 1.13077 117.061 1.18706 116.985 1.22181C116.909 1.25655 116.825 1.26823 116.743 1.25538C116.671 1.25538 116.552 1.22794 116.562 1.34456C116.572 1.46119 116.668 1.45776 116.753 1.45433C116.994 1.40379 117.245 1.44668 117.455 1.57438C117.482 1.58256 117.511 1.58496 117.539 1.58142C117.567 1.57787 117.595 1.56847 117.619 1.5538C118.321 1.14416 119.113 0.916652 119.924 0.891794C120.078 0.891794 120.32 0.891794 120.344 0.631108C120.719 0.603025 121.096 0.658054 121.448 0.792322C121.63 0.856053 121.817 0.903123 122.008 0.932955C122.53 1.02458 123.038 1.18608 123.518 1.41317C122.842 1.38696 122.173 1.27164 121.527 1.07016C121.234 0.970686 120.93 0.778602 120.627 0.881504C120.166 1.04217 119.682 1.12223 119.194 1.11818C119.116 1.11818 119.024 1.11818 118.986 1.2005C118.949 1.28282 119.003 1.36858 119.068 1.43718C119.157 1.52783 119.263 1.59925 119.381 1.64703C119.498 1.69481 119.624 1.71795 119.75 1.71501C119.891 1.73435 120.026 1.78155 120.149 1.8539C120.271 1.92624 120.378 2.02229 120.464 2.13649C120.549 2.25068 120.611 2.38076 120.646 2.51919C120.681 2.65762 120.688 2.80167 120.668 2.94298C120.623 3.14193 120.466 3.31 120.449 3.49522C120.405 4.05776 120.228 4.65802 120.93 5.03533C121.206 5.18625 121.452 5.22741 121.656 4.97702C121.786 4.82098 121.905 4.65718 122.014 4.48652C122.061 4.39947 122.133 4.3292 122.221 4.28553C122.309 4.24186 122.409 4.22698 122.506 4.24298C122.772 4.2706 123.04 4.19991 123.259 4.04404C123.409 3.94456 123.6 3.78335 123.795 3.89311C124.076 3.99801 124.374 4.05145 124.674 4.0509C124.764 4.05625 124.853 4.03666 124.931 3.99428C125.01 3.9519 125.076 3.88839 125.121 3.81079C125.213 3.6976 125.002 3.60842 124.91 3.52267C124.818 3.43691 124.78 3.45063 124.807 3.36831C124.835 3.28599 124.903 3.31343 124.957 3.31343C125.326 3.31343 125.418 3.10419 125.37 2.80921C125.336 2.59997 125.404 2.55881 125.592 2.6377C125.697 2.6823 125.806 2.76119 125.95 2.6377C125.568 2.48759 125.214 2.27426 124.903 2.00657C125.244 2.02579 125.572 2.14502 125.847 2.34958C126.529 2.72003 127.174 3.11449 127.822 3.5158C129.213 4.41099 130.484 5.48191 131.603 6.70235C131.692 6.77127 131.751 6.87209 131.767 6.98361C131.631 7.00419 131.566 6.89786 131.474 6.83269C131.229 6.62337 130.946 6.46274 130.642 6.35934C130.556 6.32237 130.461 6.31512 130.371 6.33872C130.281 6.36232 130.201 6.41543 130.144 6.48968C130.093 6.58032 130.014 6.65235 129.92 6.69548C129.826 6.7386 129.72 6.75061 129.619 6.72979C129.597 6.72308 129.573 6.72145 129.55 6.72501C129.527 6.72856 129.505 6.73722 129.486 6.75036C129.467 6.76349 129.451 6.78077 129.439 6.80094C129.427 6.82112 129.42 6.84368 129.418 6.86699C129.387 7.15512 129.878 7.73823 130.164 7.68335C130.451 7.62847 130.553 7.8034 130.676 7.97491C130.717 8.03322 130.826 8.09839 130.737 8.16699C130.649 8.23559 130.577 8.14641 130.529 8.06752C130.482 7.98863 130.458 7.9063 130.355 7.96462C130.253 8.02293 130.284 8.11554 130.304 8.20472C130.325 8.2939 130.512 8.36251 130.468 8.50657C130.349 8.5786 130.229 8.44826 130.1 8.5443C129.708 8.829 129.315 9.13427 128.77 9.08625C128.729 9.0795 128.687 9.08796 128.652 9.11006C128.617 9.13215 128.591 9.16637 128.579 9.20631C128.579 9.27834 128.637 9.32293 128.688 9.36409C128.828 9.47728 128.981 9.58361 129.114 9.7071C129.202 9.78018 129.258 9.88401 129.272 9.99743C129.286 10.1109 129.256 10.2254 129.189 10.3177C129.077 10.4892 128.848 10.4068 128.678 10.3417C128.507 10.2765 128.357 10.1976 128.193 10.153C127.948 10.0878 127.788 10.153 127.852 10.4343C127.897 10.6601 127.915 10.8903 127.907 11.1203C127.907 11.4324 127.815 11.8063 128.344 11.8063C128.367 11.8063 128.388 11.8543 128.412 11.8783C128.769 12.0113 129.153 12.0549 129.53 12.0052C129.578 11.986 129.619 11.9552 129.652 11.9157C129.685 11.8762 129.707 11.8292 129.718 11.7789C129.743 11.6451 129.796 11.518 129.873 11.4059C129.95 11.2937 130.049 11.1988 130.164 11.1271C130.202 11.1032 130.233 11.0697 130.254 11.03C130.275 10.9902 130.285 10.9457 130.284 10.9008C130.284 10.6778 130.407 10.7087 130.56 10.7773C130.713 10.8459 130.836 10.9728 130.997 10.8082C131.235 10.5646 131.409 10.695 131.546 10.9111C131.677 11.1492 131.88 11.3399 132.125 11.4564C132.382 11.5845 132.602 11.7756 132.766 12.0121C132.795 12.0458 132.815 12.0854 132.827 12.1282C132.838 12.1709 132.839 12.2157 132.831 12.2591C132.783 12.3791 132.674 12.2591 132.592 12.2591C132.511 12.2591 132.391 12.2076 132.337 12.3002C132.282 12.3928 132.408 12.4374 132.466 12.4958C132.698 12.7118 132.875 12.6432 133.056 12.4237C133.108 12.3798 133.149 12.3237 133.174 12.2604C133.199 12.197 133.208 12.1284 133.201 12.0605C133.193 11.9927 133.17 11.9278 133.131 11.8714C133.093 11.8151 133.041 11.7692 132.981 11.7377C132.585 11.4503 132.217 11.1252 131.883 10.767C131.829 10.719 131.794 10.6572 131.883 10.568C132.224 10.8184 132.534 11.0826 132.875 11.3192C133.149 11.482 133.37 11.7201 133.513 12.0052C133.66 12.3483 134.079 12.4958 134.195 12.8593C134.202 12.8786 134.214 12.896 134.228 12.91C134.243 12.924 134.261 12.9342 134.281 12.9399C134.301 12.9456 134.321 12.9466 134.341 12.9427C134.361 12.9388 134.38 12.9302 134.396 12.9177C134.423 12.8955 134.44 12.8641 134.444 12.8298C134.449 12.7954 134.44 12.7606 134.42 12.7324C134.385 12.6755 134.354 12.6159 134.328 12.5541C134.301 12.4717 134.117 12.4031 134.25 12.314C134.383 12.2248 134.437 12.1184 134.615 12.2351C134.644 12.263 134.679 12.2838 134.717 12.2957C134.756 12.3077 134.797 12.3104 134.836 12.3037C134.876 12.2971 134.914 12.2812 134.946 12.2574C134.979 12.2336 135.005 12.2024 135.024 12.1665C135.058 12.1997 135.084 12.2408 135.098 12.2862C135.113 12.3316 135.117 12.38 135.109 12.4271C135.024 12.5609 134.86 12.3551 134.768 12.506C134.85 12.6192 134.935 12.7359 135.014 12.849C135.092 12.9622 135.177 13.1166 135.245 13.2572C135.314 13.3979 135.378 13.3979 135.464 13.3773ZM128.026 7.47755C128.009 7.4879 127.989 7.49379 127.968 7.4947C127.385 7.37121 127.31 7.43295 127.365 7.98177C127.365 8.13612 127.443 8.32477 127.61 8.25274C127.777 8.18071 128.163 8.35565 128.067 7.94404C128.051 7.89513 128.052 7.84216 128.069 7.79363C128.086 7.74511 128.119 7.70385 128.163 7.67649C128.265 7.61818 128.364 7.7005 128.436 7.7691C128.507 7.8377 128.49 7.9509 128.405 8.02979C128.32 8.10868 128.248 8.16699 128.299 8.25617C128.429 8.48256 128.432 8.85644 128.886 8.72266C128.99 8.71215 129.094 8.73368 129.186 8.78441C129.394 8.88045 129.377 8.68836 129.445 8.60947C129.513 8.53058 129.469 8.45169 129.363 8.38309C129.011 8.09397 128.711 7.74585 128.476 7.35406C128.371 7.21686 128.299 7.01105 128.112 7.05908C127.859 7.11396 128.05 7.30947 128.047 7.44667C128.047 7.46725 128.033 7.47755 128.026 7.48784V7.47755ZM109.752 15.3324C109.544 15.3016 109.332 15.3376 109.145 15.4353C109.053 15.5005 108.882 15.5725 108.964 15.7132C109.046 15.8538 109.165 15.7132 109.261 15.6789C109.558 15.5245 109.824 15.6789 110.086 15.7749C110.236 15.8195 110.461 15.9052 110.352 16.1591C110.349 16.1699 110.348 16.1814 110.35 16.1926C110.352 16.2038 110.357 16.2142 110.364 16.2231C110.371 16.2319 110.38 16.2389 110.391 16.2433C110.401 16.2476 110.413 16.2494 110.424 16.2483C110.714 16.2483 110.993 16.3855 111.283 16.31C111.433 16.2723 111.597 16.1762 111.396 16.0493C110.891 15.7303 110.42 15.3187 109.752 15.3324ZM118.182 8.33164V8.30762H118.328C118.516 8.30762 118.7 8.27332 118.734 8.06752C118.768 7.86171 118.69 7.72451 118.437 7.72451C118.373 7.71929 118.314 7.68979 118.271 7.64201C118.228 7.59423 118.204 7.53174 118.205 7.46726C118.205 7.22372 118.066 7.26831 117.946 7.37121C117.746 7.54028 117.556 7.72125 117.377 7.91317C117.237 8.06752 117.298 8.17728 117.503 8.21501C117.708 8.25274 117.953 8.29047 118.182 8.33164ZM112.081 16.8794C112.282 16.8565 112.481 16.8233 112.678 16.7799C112.852 16.7353 112.937 16.629 112.773 16.4678C112.524 16.214 112.2 16.286 111.893 16.2654C111.675 16.2654 111.662 16.3855 111.628 16.533C111.61 16.6256 111.501 16.6016 111.423 16.6084C111.344 16.6153 111.177 16.6084 111.201 16.7422C111.225 16.876 111.372 16.8897 111.46 16.8588C111.665 16.8086 111.88 16.8157 112.081 16.8794ZM114.41 2.05802C114.11 2.03401 113.97 2.26383 113.728 2.30156C113.667 2.30156 113.578 2.27412 113.554 2.35987C113.53 2.44562 113.616 2.46963 113.656 2.51765C113.677 2.54643 113.703 2.5703 113.734 2.58752C113.764 2.60473 113.798 2.61486 113.833 2.61716C113.868 2.61946 113.903 2.61388 113.936 2.60082C113.968 2.58775 113.998 2.56754 114.021 2.54166C114.335 2.35136 114.683 2.22329 115.044 2.16435C115.143 2.13348 115.232 2.09918 115.208 1.99285C115.184 1.88652 115.065 1.91053 114.98 1.92425C114.789 1.96884 114.618 2.20894 114.41 2.05802ZM115.072 17.7026C115.037 17.5955 114.981 17.4964 114.908 17.4111C114.835 17.3257 114.746 17.2558 114.645 17.2052C114.631 17.1953 114.615 17.1885 114.598 17.1852C114.581 17.1819 114.563 17.1822 114.546 17.1861C114.529 17.1899 114.513 17.1973 114.499 17.2077C114.485 17.2181 114.473 17.2312 114.465 17.2464C114.424 17.3219 114.482 17.363 114.543 17.4076C114.598 17.434 114.646 17.4726 114.683 17.5206C114.721 17.5686 114.747 17.6245 114.759 17.6842C114.772 17.7439 114.77 17.8057 114.755 17.8648C114.74 17.9239 114.712 17.9787 114.673 18.025C114.599 18.1869 114.514 18.3429 114.417 18.4915C114.352 18.567 114.417 18.663 114.465 18.7316C114.471 18.7416 114.479 18.7498 114.489 18.7554C114.5 18.7611 114.511 18.7641 114.523 18.7641C114.534 18.7641 114.546 18.7611 114.556 18.7554C114.566 18.7498 114.574 18.7416 114.581 18.7316C114.763 18.4017 114.927 18.0616 115.072 17.7129V17.7026ZM125.888 5.32689H126.127C126.222 5.32689 126.328 5.32689 126.352 5.20683C126.376 5.08678 126.263 5.06963 126.188 5.02504C125.932 4.88989 125.646 4.8226 125.356 4.82952C125.31 4.82059 125.263 4.82892 125.223 4.85295C125.182 4.87697 125.152 4.91502 125.138 4.95987C125.114 5.05248 125.193 5.09707 125.268 5.1348C125.45 5.26224 125.666 5.33264 125.888 5.33718V5.32689ZM110.761 15.0923C110.761 14.8248 110.778 14.6293 110.969 14.5229C111.16 14.4166 111.198 14.3171 111.123 14.1799C111.048 14.0427 110.85 14.0804 110.717 14.101C110.533 14.1319 110.591 14.2794 110.625 14.3926C110.625 14.4509 110.649 14.4955 110.598 14.5401C110.339 14.7493 110.547 14.8865 110.761 15.0923ZM116.927 1.87623C117.063 1.87623 117.268 1.87623 117.268 1.7253C117.268 1.57438 117.084 1.64984 116.981 1.64641C116.693 1.67169 116.402 1.63426 116.129 1.53665C116.07 1.50934 116.006 1.49723 115.942 1.50142C115.877 1.50562 115.815 1.52598 115.76 1.56066C115.703 1.59496 115.645 1.64298 115.662 1.72187C115.679 1.80077 115.747 1.78018 115.801 1.78704L116.927 1.87623ZM116.545 1.07702C116.753 1.07702 116.886 0.929525 117.029 0.826623C117.08 0.792322 117.046 0.72715 117.002 0.685989C116.848 0.548786 116.685 0.600238 116.518 0.658549C116.496 0.664542 116.476 0.672583 116.456 0.682559C116.344 0.737441 116.19 0.785462 116.214 0.926095C116.238 1.06673 116.425 1.029 116.545 1.07702ZM113.786 16.7491C113.684 16.581 113.472 16.5467 113.285 16.4952C113.162 16.4609 113.026 16.533 113.053 16.6599C113.097 16.8828 113.346 16.8622 113.517 16.924C113.629 16.9686 113.742 16.924 113.786 16.7491ZM110.523 16.9308C110.611 16.9034 110.792 16.9857 110.768 16.8039C110.744 16.6221 110.598 16.6118 110.448 16.6118C110.298 16.6118 110.192 16.6118 110.199 16.7696C110.206 16.9274 110.386 16.924 110.523 16.9308ZM131.692 11.7274C131.655 11.5936 131.644 11.4221 131.433 11.3844C131.317 11.3844 131.252 11.4427 131.28 11.549C131.32 11.7103 131.385 11.8921 131.593 11.8921C131.709 11.9264 131.692 11.82 131.692 11.7274ZM124.906 17.7438C125.005 17.7438 125.148 17.8192 125.169 17.6443C125.172 17.6246 125.171 17.6042 125.164 17.5853C125.157 17.5664 125.146 17.5497 125.131 17.5368C125.115 17.5239 125.097 17.5153 125.077 17.5118C125.058 17.5084 125.037 17.5104 125.019 17.5174C124.906 17.5688 124.695 17.4934 124.678 17.6786C124.681 17.8055 124.807 17.7609 124.906 17.7438ZM130.628 11.453C130.57 11.4251 130.507 11.4105 130.443 11.4101C130.378 11.4097 130.315 11.4236 130.256 11.4508C130.198 11.478 130.146 11.5178 130.105 11.5674C130.064 11.617 130.034 11.6752 130.018 11.7377C130.248 11.7164 130.463 11.6158 130.628 11.453ZM135.16 13.5111C135.102 13.2881 134.904 13.3293 134.761 13.2847C134.686 13.2607 134.611 13.3121 134.649 13.391C134.713 13.5454 134.87 13.5659 135.02 13.5797C135.085 13.5934 135.167 13.6037 135.16 13.5213V13.5111ZM114.093 16.5981C113.953 16.6873 114.049 16.8279 114.038 16.9411C114.028 17.0543 114.083 17.2224 114.223 17.195C114.362 17.1675 114.223 17.0372 114.223 16.9549C114.223 16.8725 114.223 16.8039 114.223 16.7285C114.223 16.653 114.175 16.6564 114.093 16.6256V16.5981ZM124.538 17.0646C124.538 17.0063 124.425 16.9686 124.337 16.9892C124.248 17.0097 124.217 17.0235 124.238 17.0921C124.258 17.1607 124.361 17.1709 124.436 17.1641C124.511 17.1572 124.545 17.1504 124.538 17.0921V17.0646Z" fill="url(#paint0_linear_24_3)"/>
<path d="M19.2836 37.0446C16.6581 37.0699 14.0507 36.6047 11.594 35.6726C9.31604 34.8062 7.23447 33.4881 5.47295 31.7966C3.74694 30.1352 2.37247 28.1402 1.43206 25.9312C0.454172 23.5866 -0.0333531 21.0646 -0.000153895 18.5222C-0.0333531 15.9799 0.454172 13.4579 1.43206 11.1132C2.37518 8.89975 3.75845 6.9037 5.49682 5.24781C7.26828 3.56073 9.35445 2.24338 11.6349 1.37182C14.1286 0.432027 16.7743 -0.0332223 19.437 -0.000206955C22.2264 -0.0394086 24.9968 0.467358 27.5939 1.49188C29.9643 2.438 32.0774 3.93692 33.7592 5.86523L29.5649 9.98132C28.2775 8.64732 26.7378 7.58601 25.0363 6.85995C23.3373 6.1789 21.5216 5.84091 19.6928 5.86523C17.9037 5.84342 16.1262 6.15749 14.4516 6.79135C12.916 7.37645 11.5146 8.26916 10.3323 9.41536C9.16779 10.5547 8.24549 11.92 7.62127 13.4286C6.95957 15.0433 6.629 16.7758 6.64941 18.5222C6.63406 20.2604 6.9645 21.9841 7.62127 23.5919C8.24615 25.1113 9.17469 26.4855 10.3493 27.6291C11.5244 28.7711 12.9161 29.6635 14.4413 30.2531C16.1073 30.8881 17.8772 31.2023 19.6587 31.1792C21.4067 31.1845 23.1434 30.897 24.7976 30.3285C26.5437 29.7044 28.1474 28.734 29.5137 27.4747L33.2647 32.4655C31.3562 34.0158 29.1677 35.1806 26.8198 35.8956C24.381 36.6644 21.8393 37.052 19.2836 37.0446ZM27.0073 31.5908V18.1792H33.2477V32.4826L27.0073 31.5908Z" fill="white"/>
<path d="M56.1633 36.5303V0.514496H62.8128V30.8707H81.5339V36.5303H56.1633Z" fill="white"/>
<path d="M158.103 36.5303V0.514496H174.935C179.197 0.514496 182.454 1.36287 184.705 3.05961C185.78 3.83052 186.651 4.85575 187.239 6.04491C187.828 7.23408 188.117 8.55066 188.08 9.87861C188.133 11.6125 187.67 13.3226 186.751 14.7905C185.871 16.1422 184.643 17.2282 183.197 17.9324C181.688 18.6767 180.026 19.0549 178.345 19.0369L179.266 17.1847C181.131 17.1549 182.981 17.5329 184.688 18.2926C186.229 18.9775 187.543 20.093 188.473 21.5066C189.393 22.9129 189.848 24.6623 189.837 26.7546C189.837 29.8417 188.669 32.2427 186.335 33.9578C184 35.6728 180.541 36.5303 175.958 36.5303H158.103ZM164.752 31.2823H175.545C178 31.2823 179.893 30.8707 181.223 30.0475C182.553 29.2243 183.218 27.9037 183.218 26.0857C183.218 24.3021 182.553 22.9907 181.223 22.1514C179.893 21.3122 178 20.8915 175.545 20.8892H164.241V15.6926H174.164C176.449 15.6926 178.222 15.281 179.484 14.4578C180.746 13.6345 181.376 12.3997 181.376 10.7533C181.376 9.07254 180.746 7.81485 179.484 6.9802C178.222 6.14554 176.449 5.73393 174.164 5.74537H164.752V31.2823Z" fill="white"/>
<path d="M217.796 30.8707H238V36.5303H211.146V0.514496H237.284V6.17413H217.796V30.8707ZM217.284 15.4868H235.084V20.9921H217.284V15.4868Z" fill="white"/>
<defs>
<linearGradient id="paint0_linear_24_3" x1="97.527" y1="26.1475" x2="135.713" y2="26.1475" gradientUnits="userSpaceOnUse">
<stop stop-color="#03B2A4"/>
<stop offset="0.0001" stop-color="#03B2A4"/>
<stop offset="1" stop-color="#034A45"/>
</linearGradient>
</defs>
</svg>
