<svg xmlns="http://www.w3.org/2000/svg" viewBox="0 0 380.71 335.04"><defs><style>.cls-1{fill:none;stroke:#03b2a4;stroke-miterlimit:10;stroke-width:4px;}</style></defs><title>methane</title><g id="Livello_2" data-name="Livello 2"><g id="Livello_1-2" data-name="Livello 1"><g id="methane"><path class="cls-1" d="M81.18,134.53c-2.23-.31-4.17-.56-6.1-.85-43-6.5-80.72,33.5-71.75,76.2,6.49,30.82,32.33,51.81,64,51.83q121.64.06,243.26,0c3.36,0,6.73-.15,10.09-.42,33.35-2.66,60.25-34,57.86-67.33-2.48-34.53-28.85-59.81-63.51-60.81-2.12-.06-3.27-.6-4.16-2.71-11.26-26.62-37.74-40.89-65.81-35.3-3.35.67-4.41-.16-5.73-3-14.19-30.65-46.9-50.22-79.74-47.89-35.88,2.54-65.37,26-75.27,59.78A86.93,86.93,0,0,0,81.18,134.53ZM259.65,40.29a18.55,18.55,0,1,0,18.65,18.5A18.65,18.65,0,0,0,259.65,40.29ZM222.89,303.87a18.59,18.59,0,1,0-18.56-18.57A18.66,18.66,0,0,0,222.89,303.87ZM328.93,71a18.52,18.52,0,1,0,18.34,18.75A18.63,18.63,0,0,0,328.93,71ZM85.83,285.22a18.49,18.49,0,1,0,18.39-18.69A18.62,18.62,0,0,0,85.83,285.22Zm96.26,29.06A18.49,18.49,0,1,0,163.76,333,18.61,18.61,0,0,0,182.09,314.28ZM338.48,20.69a18.48,18.48,0,1,0-37-.4,18.48,18.48,0,0,0,37,.4ZM291.86,304.8a18.48,18.48,0,1,0-18.57-18.52A18.52,18.52,0,0,0,291.86,304.8ZM110,33.88A18.5,18.5,0,1,0,91.45,52.31,18.5,18.5,0,0,0,110,33.88ZM70.41,97.34A18.49,18.49,0,1,0,52,116,18.47,18.47,0,0,0,70.41,97.34Z"/><path class="cls-1" d="M81.18,134.53A86.93,86.93,0,0,1,84.34,104c9.9-33.8,39.39-57.24,75.27-59.78,32.84-2.33,65.55,17.24,79.74,47.89,1.32,2.84,2.38,3.67,5.73,3,28.07-5.59,54.55,8.68,65.81,35.3.89,2.11,2,2.65,4.16,2.71,34.66,1,61,26.28,63.51,60.81,2.39,33.35-24.51,64.67-57.86,67.33-3.36.27-6.73.41-10.09.42q-121.63,0-243.26,0c-31.69,0-57.53-21-64-51.83-9-42.7,28.7-82.7,71.75-76.2C77,134,79,134.22,81.18,134.53ZM190.49,253q60.82,0,121.63,0a70.83,70.83,0,0,0,7.85-.22c30.76-3.45,52.34-30,49.77-61.17-2.4-29-28.63-51.55-58.43-50-4.15.21-6.06-1.22-7.33-5a49.58,49.58,0,0,0-61.34-32.09c-6.08,1.79-6.81,1.43-9.16-4.52A74.58,74.58,0,0,0,90.33,138.38c.75,5.12-1.72,7.21-6.76,5.9A89.54,89.54,0,0,0,73,142c-36.56-5-68.44,28.68-61.58,64.94C16.59,234.17,39.22,253,67,253Q128.74,253.11,190.49,253Z"/><path class="cls-1" d="M259.65,40.29A18.55,18.55,0,1,1,241.1,58.87,18.68,18.68,0,0,1,259.65,40.29Zm.17,28.51a9.88,9.88,0,0,0,9.82-10.1,9.95,9.95,0,1,0-19.89.26A9.87,9.87,0,0,0,259.82,68.8Z"/><path class="cls-1" d="M222.89,303.87a18.59,18.59,0,1,1,18.58-18.56A18.67,18.67,0,0,1,222.89,303.87Zm-.13-28.52a10,10,0,1,0,10.08,9.81A9.82,9.82,0,0,0,222.76,275.35Z"/><path class="cls-1" d="M328.93,71a18.52,18.52,0,1,1-18.84,18.28A18.59,18.59,0,0,1,328.93,71Zm9.74,18.67a10,10,0,1,0-19.92-.3,10,10,0,1,0,19.92.3Z"/><path class="cls-1" d="M85.83,285.22a18.49,18.49,0,1,1,18.59,18.53A18.57,18.57,0,0,1,85.83,285.22Zm18.46,9.85a10,10,0,1,0-10-10A10,10,0,0,0,104.29,295.07Z"/><path class="cls-1" d="M182.09,314.28a18.49,18.49,0,1,1-18.65-18.46A18.56,18.56,0,0,1,182.09,314.28Zm-18.51-9.79a10,10,0,1,0,10,9.92A10,10,0,0,0,163.58,304.49Z"/><path class="cls-1" d="M338.48,20.69a18.48,18.48,0,0,1-37-.4,18.48,18.48,0,1,1,37,.4Zm-8.43-.08A10,10,0,0,0,310,20.17a10,10,0,1,0,20.09.44Z"/><path class="cls-1" d="M291.86,304.8a18.48,18.48,0,1,1,18.64-18.43A18.59,18.59,0,0,1,291.86,304.8Zm10-18.12a9.94,9.94,0,1,0-10.29,9.68A9.94,9.94,0,0,0,301.82,286.68Z"/><path class="cls-1" d="M110,33.88A18.5,18.5,0,1,1,91.63,15.23,18.43,18.43,0,0,1,110,33.88Zm-28.5-.18a10,10,0,1,0,10-9.9A10,10,0,0,0,81.54,33.7Z"/><path class="cls-1" d="M70.41,97.34A18.49,18.49,0,1,1,51.84,78.87,18.46,18.46,0,0,1,70.41,97.34Zm-28.52.11A10,10,0,1,0,62,97.22a10,10,0,0,0-20.09.23Z"/><path class="cls-1" d="M190.49,253Q128.75,253,67,253c-27.78,0-50.41-18.86-55.57-46.1C4.57,170.67,36.45,137,73,142a89.54,89.54,0,0,1,10.56,2.29c5,1.31,7.51-.78,6.76-5.9A74.58,74.58,0,0,1,233.48,100c2.35,6,3.08,6.31,9.16,4.52A49.58,49.58,0,0,1,304,136.56c1.27,3.82,3.18,5.25,7.33,5,29.8-1.51,56,21.06,58.43,50,2.57,31.15-19,57.72-49.77,61.17a70.83,70.83,0,0,1-7.85.22Q251.31,253.06,190.49,253Zm-3.43-64.59v-3.83q0-13.27,0-26.56c0-2.95-.8-5.36-4.21-5.44s-4.32,2.33-4.32,5.27q0,35,0,69.94c0,2.95.84,5.28,4.18,5.53,2.67.21,4.33-2.06,4.34-5.77,0-8.73,0-17.46,0-26.19v-3.85h37v4.73q0,12.9,0,25.82c0,3,1.17,5.34,4.47,5.22,3-.11,4.14-2.36,4.14-5.21q0-35.18,0-70.34c0-2.8-.94-5.05-4.13-5.15-3.45-.12-4.45,2.22-4.46,5.18,0,8.85,0,17.71,0,26.56,0,1.33-.12,2.65-.18,4.09Zm-97.6,5.49a66.71,66.71,0,0,0,1.15,8.32c4,15.84,13.76,26.63,29.84,30.17,15.86,3.49,28.89-2.18,38.81-15A28.3,28.3,0,0,0,161.5,214c1.29-2.32.89-4.4-1.36-5.84s-4.28-.63-5.81,1.45c-.67.9-1.22,1.89-1.88,2.79-7.2,9.91-19.22,14.49-30.62,11.69-13.44-3.3-23.08-15.36-23.72-29.67s8-27.41,20.87-31.85c13.08-4.51,26.05.32,34.92,13.12,1.68,2.42,3.69,3.56,6.28,2s2.46-4,.91-6.49a38.25,38.25,0,0,0-13.73-13.49c-12.54-7-25.35-7.22-37.74,0C96.22,165.4,90,177.64,89.46,193.94Zm182.3,27.46c0,2.75,0,4.86,0,7,0,2.91,1.31,5,4.36,4.94,2.82,0,4.1-2,4.15-4.78.05-2.3,0-4.61,0-7.15,2.52,0,4.38.07,6.23,0,2.85-.14,4.87-1.38,4.8-4.53-.07-3-2.05-4.08-4.73-4.18-2-.07-3.93,0-6.31,0,0-2.75.06-5.1,0-7.44-.09-2.74-1.35-4.65-4.29-4.59s-4.14,2-4.2,4.71c0,2.33,0,4.66,0,7H259.91c6.66-8.17,12.92-15.9,19.23-23.59,1.93-2.36,3.09-4.87.28-7.17s-5-.52-6.9,1.83c-7.84,9.7-15.8,19.3-23.49,29.11-1.27,1.63-2.44,4.66-1.75,6.14s3.75,2.49,5.84,2.61C259.18,221.61,265.27,221.4,271.76,221.4Z"/><path class="cls-1" d="M259.82,68.8A9.87,9.87,0,0,1,249.75,59a9.95,9.95,0,1,1,19.89-.26A9.88,9.88,0,0,1,259.82,68.8Z"/><path class="cls-1" d="M222.76,275.35a9.82,9.82,0,0,1,10.08,9.81A9.94,9.94,0,0,1,223,295.3a10,10,0,1,1-.27-19.95Z"/><path class="cls-1" d="M338.67,89.65a10,10,0,1,1-9.83-10.21A10.09,10.09,0,0,1,338.67,89.65Z"/><path class="cls-1" d="M104.29,295.07a10,10,0,1,1,0-19.91,10,10,0,1,1,0,19.91Z"/><path class="cls-1" d="M163.58,304.49a10,10,0,1,1,0,19.91,10,10,0,1,1,0-19.91Z"/><path class="cls-1" d="M330.05,20.61A10,10,0,1,1,310,20.17a10,10,0,0,1,20.09.44Z"/><path class="cls-1" d="M301.82,286.68a9.94,9.94,0,1,1-9.56-10.4A10,10,0,0,1,301.82,286.68Z"/><path class="cls-1" d="M81.54,33.7a10,10,0,0,1,10-9.9,10.11,10.11,0,0,1,10.09,9.86,10,10,0,1,1-20.06,0Z"/><path class="cls-1" d="M41.89,97.45A10,10,0,0,1,62,97.22a10,10,0,1,1-20.09.23Z"/><path class="cls-1" d="M187.06,188.45h36.79c.06-1.44.18-2.76.18-4.09,0-8.85,0-17.71,0-26.56,0-3,1-5.3,4.46-5.18,3.19.1,4.13,2.35,4.13,5.15q0,35.16,0,70.34c0,2.85-1.11,5.1-4.14,5.21-3.3.12-4.47-2.22-4.47-5.22q0-12.91,0-25.82v-4.73h-37v3.85c0,8.73,0,17.46,0,26.19,0,3.71-1.67,6-4.34,5.77-3.34-.25-4.19-2.58-4.18-5.53q0-35,0-69.94c0-2.94.85-5.36,4.32-5.27s4.22,2.49,4.21,5.44q0,13.27,0,26.56Z"/><path class="cls-1" d="M89.46,193.94c.52-16.3,6.76-28.54,20.16-36.31,12.39-7.18,25.2-7,37.74,0a38.25,38.25,0,0,1,13.73,13.49c1.55,2.48,1.74,4.86-.91,6.49s-4.6.45-6.28-2c-8.87-12.8-21.84-17.63-34.92-13.12-12.84,4.44-21.5,17.66-20.87,31.85s10.28,26.37,23.72,29.67c11.4,2.8,23.42-1.78,30.62-11.69.66-.9,1.21-1.89,1.88-2.79,1.53-2.08,3.48-2.93,5.81-1.45s2.65,3.52,1.36,5.84a28.3,28.3,0,0,1-2.24,3.45c-9.92,12.81-22.95,18.48-38.81,15-16.08-3.54-25.79-14.33-29.84-30.17A66.71,66.71,0,0,1,89.46,193.94Z"/><path class="cls-1" d="M271.76,221.4c-6.49,0-12.58.21-18.64-.12-2.09-.12-5.13-1.12-5.84-2.61s.48-4.51,1.75-6.14c7.69-9.81,15.65-19.41,23.49-29.11,1.89-2.35,4-4.17,6.9-1.83s1.65,4.81-.28,7.17c-6.31,7.69-12.57,15.42-19.23,23.59h11.85c0-2.36,0-4.69,0-7,.06-2.74,1.32-4.65,4.2-4.71s4.2,1.85,4.29,4.59c.07,2.34,0,4.69,0,7.44,2.38,0,4.35-.06,6.31,0,2.68.1,4.66,1.22,4.73,4.18.07,3.15-1.95,4.39-4.8,4.53-1.85.09-3.71,0-6.23,0,0,2.54,0,4.85,0,7.15,0,2.73-1.33,4.74-4.15,4.78-3.05.05-4.34-2-4.36-4.94C271.75,226.26,271.76,224.15,271.76,221.4Z"/></g></g></g></svg>