<svg width="364" height="388" viewBox="0 0 364 388" fill="none" xmlns="http://www.w3.org/2000/svg">
<path d="M179.632 385.345C185.822 383.045 191.122 379.545 192.872 372.835C193.872 369.175 193.822 365.195 193.802 361.355C193.896 358.212 193.102 355.106 191.51 352.394C189.917 349.682 187.592 347.475 184.802 346.025C182.402 344.715 181.802 343.325 181.802 340.855C181.862 296.575 181.632 252.285 181.942 208.005C182.092 187.175 174.362 170.515 158.282 157.495C152.662 152.945 147.082 148.335 141.662 143.555C136.242 138.775 133.442 132.775 133.872 125.335C134.19 121.338 134.13 117.32 133.692 113.335C132.752 106.015 128.052 101.405 121.752 98.695C123.852 94.345 125.832 90.245 127.822 86.105H139.742C140.332 95.235 141.572 97.625 145.682 97.785C149.792 97.945 151.222 95.565 152.132 86.035C155.242 85.235 157.692 83.625 157.822 80.035C157.972 76.115 155.232 74.445 152.042 73.555C151.582 64.555 150.282 61.705 146.132 61.955C138.342 62.405 140.312 68.805 139.792 73.645H127.412C124.132 61.205 116.202 53.555 104.222 50.355V37.995C108.162 37.995 111.872 37.995 115.592 37.995C125.912 37.855 133.872 30.115 133.942 20.195C134.012 10.085 126.022 2.19503 115.542 2.08503C103.942 2.01837 92.3385 2.01837 80.7318 2.08503C70.1618 2.13503 62.1218 9.88504 62.0818 19.945C62.0418 30.005 70.0018 37.835 80.5518 37.995C84.2618 37.995 87.9718 37.995 91.8418 37.995V50.445C71.8418 55.145 60.1318 78.385 74.4918 98.555C73.9518 98.855 73.4918 99.155 72.9118 99.425C65.6318 103.075 61.9118 108.875 62.0618 117.105C62.1218 120.225 61.9718 123.345 62.0618 126.465C62.2525 129.282 61.8129 132.106 60.775 134.732C59.7371 137.358 58.127 139.72 56.0618 141.645C51.1139 146.39 45.9236 150.876 40.5118 155.085C22.4418 168.925 13.5018 186.745 14.0018 209.885C14.6418 239.805 14.1618 269.755 14.1618 299.695C14.1618 313.695 14.1618 327.635 14.1018 341.605C14.1018 342.775 13.6218 344.605 12.8118 344.985C1.42184 350.775 1.12184 360.745 2.67184 370.995C3.83184 378.705 9.52184 382.725 16.3918 385.305" stroke="#03B2A4" stroke-width="4" stroke-miterlimit="10"/>
<path d="M16.3918 385.345C9.52182 382.765 3.83182 378.745 2.67182 370.995C1.12182 360.745 1.42182 350.775 12.8018 344.995C13.6118 344.585 14.0818 342.785 14.0918 341.615C14.1818 327.615 14.1518 313.675 14.1518 299.705C14.1518 269.765 14.6318 239.815 13.9918 209.895C13.5018 186.755 22.4418 168.895 40.5618 155.095C45.9736 150.886 51.1639 146.4 56.1118 141.655C58.177 139.73 59.7871 137.368 60.825 134.742C61.8629 132.116 62.3025 129.292 62.1118 126.475C61.9918 123.355 62.1118 120.235 62.1118 117.115C61.9418 108.885 65.6818 103.115 72.9618 99.435C73.4918 99.165 73.9618 98.865 74.5418 98.565C60.1818 78.395 71.8418 55.155 91.8918 50.455V37.995C88.0218 37.995 84.3118 37.995 80.6018 37.995C70.0018 37.835 62.0018 29.995 62.0818 19.905C62.1618 9.815 70.1618 2.095 80.7318 2.045C92.3318 1.985 103.935 1.985 115.542 2.045C126.022 2.115 134.012 10.045 133.942 20.155C133.872 30.075 125.942 37.815 115.592 37.955C111.872 37.955 108.162 37.955 104.222 37.955V50.425C116.222 53.625 124.132 61.275 127.412 73.715H139.822C140.342 68.875 138.372 62.475 146.162 62.025C150.312 61.775 151.612 64.585 152.072 73.625C155.262 74.515 158.002 76.185 157.852 80.105C157.722 83.665 155.272 85.275 152.162 86.105C151.252 95.635 149.932 98.025 145.712 97.855C141.492 97.685 140.362 95.305 139.772 86.175H127.852C125.852 90.315 123.852 94.415 121.782 98.765C128.082 101.475 132.782 106.085 133.722 113.405C134.16 117.39 134.22 121.408 133.902 125.405C133.472 132.845 136.262 138.835 141.692 143.625C147.122 148.415 152.692 153.015 158.312 157.565C174.392 170.565 182.122 187.245 181.972 208.075C181.662 252.355 181.892 296.645 181.832 340.925C181.832 343.395 182.392 344.785 184.832 346.095C187.622 347.545 189.947 349.752 191.539 352.464C193.132 355.176 193.926 358.282 193.832 361.425C193.832 365.265 193.832 369.245 192.902 372.905C191.152 379.615 185.852 383.115 179.662 385.415L16.3918 385.345ZM26.3918 211.405H170.392C169.852 205.565 169.712 199.945 168.742 194.485C166.602 182.405 159.122 173.665 149.992 166.095C144.322 161.405 138.532 156.855 133.122 151.885C125.492 144.885 121.532 136.125 122.012 125.575C122.152 122.465 122.112 119.335 122.012 116.225C121.882 112.225 119.662 109.905 115.702 109.875C103.975 109.788 92.2518 109.788 80.5318 109.875C76.5318 109.875 74.2918 112.195 74.1518 116.155C74.0418 119.155 73.9918 122.155 74.1518 125.155C74.7118 136.155 70.5918 145.155 62.5518 152.375C56.4318 157.875 50.0018 163.015 43.7018 168.305C30.2518 179.495 24.8118 193.905 26.3518 211.405H26.3918ZM26.3918 223.775V295.295H169.652V223.775H26.3918ZM26.3918 343.155H169.592V307.675H26.3018L26.3918 343.155ZM98.2118 355.395C72.8818 355.395 47.5418 355.395 22.2118 355.485C20.0318 355.485 17.1018 356.105 15.8418 357.575C12.8418 361.085 13.6618 365.645 14.8418 369.675C15.8418 373.315 19.3318 373.395 22.5918 373.385C56.4118 373.385 90.2318 373.385 124.052 373.385C140.772 373.385 157.492 373.455 174.212 373.295C176.272 373.295 179.042 372.625 180.212 371.215C183.212 367.665 182.392 363.135 181.212 359.105C180.162 355.455 176.722 355.395 173.462 355.395C148.368 355.422 123.285 355.422 98.2118 355.395ZM116.002 80.055C116.043 76.4863 115.023 72.9857 113.071 69.9982C111.119 67.0106 108.322 64.6708 105.037 63.2762C101.752 61.8816 98.1261 61.495 94.6207 62.1656C91.1153 62.8363 87.8884 64.5338 85.35 67.0426C82.8116 69.5514 81.0763 72.7582 80.3646 76.2554C79.6529 79.7527 79.9969 83.3826 81.3528 86.6839C82.7088 89.9852 85.0156 92.8089 87.9801 94.7963C90.9445 96.7836 94.4329 97.8448 98.0018 97.845C102.74 97.8453 107.286 95.9778 110.656 92.6474C114.026 89.317 115.947 84.7924 116.002 80.055ZM98.3518 25.995C103.842 25.995 109.352 25.995 114.822 25.995C119.232 25.995 121.922 23.665 121.942 20.045C121.962 16.425 119.272 14.045 114.942 14.045C103.648 14.0117 92.4018 13.995 81.2018 13.995C76.7618 13.995 74.1118 16.295 74.0818 19.935C74.0518 23.575 76.7318 25.935 81.0818 25.935C86.8718 25.995 92.6118 25.995 98.3518 25.995Z" stroke="#03B2A4" stroke-width="4" stroke-miterlimit="10"/>
<path d="M26.3518 211.405C24.8118 193.905 30.2518 179.495 43.6218 168.285C49.9218 162.995 56.3518 157.855 62.4718 152.355C70.4718 145.145 74.6318 136.115 74.0718 125.135C73.9218 122.135 73.9718 119.135 74.0718 116.135C74.2118 112.135 76.4518 109.875 80.4518 109.855C92.1718 109.775 103.895 109.775 115.622 109.855C119.622 109.855 121.802 112.215 121.932 116.205C122.042 119.315 122.082 122.445 121.932 125.555C121.452 136.105 125.412 144.845 133.042 151.865C138.452 156.865 144.242 161.385 149.912 166.075C159.042 173.645 166.522 182.385 168.662 194.465C169.662 199.925 169.772 205.545 170.312 211.385L26.3518 211.405Z" stroke="#03B2A4" stroke-width="4" stroke-miterlimit="10"/>
<path d="M26.3118 223.775H169.652V295.295H26.3118V223.775ZM80.0018 256.615C80.8418 257.145 81.1518 257.315 81.4318 257.525C84.9918 260.165 88.0518 260.175 90.4318 257.525C92.8118 254.875 92.4918 251.625 89.5018 248.525C85.9318 244.865 82.3018 241.275 78.6518 237.685C76.3618 235.425 73.4018 234.405 70.9218 236.595C66.0866 240.909 61.493 245.486 57.1618 250.305C55.1618 252.475 55.6718 255.305 57.6718 257.475C58.5554 258.557 59.8115 259.27 61.1936 259.473C62.5756 259.677 63.9839 259.356 65.1418 258.575C66.0418 258.065 66.8618 257.415 68.0418 256.575C68.0418 263.425 68.0418 269.775 68.0418 276.135C68.0418 280.605 70.2418 283.285 73.8318 283.395C77.4218 283.505 80.0018 280.825 80.0018 276.225C80.0718 269.865 80.0018 263.515 80.0018 256.615ZM127.922 256.615C128.792 257.175 129.092 257.355 129.372 257.555C132.922 260.195 136.002 260.195 138.372 257.555C140.742 254.915 140.372 251.665 137.372 248.555C133.802 244.895 130.162 241.295 126.512 237.715C124.222 235.465 121.252 234.465 118.782 236.665C113.949 240.981 109.356 245.558 105.022 250.375C103.022 252.545 103.572 255.375 105.572 257.545C106.46 258.622 107.718 259.329 109.1 259.527C110.481 259.725 111.887 259.4 113.042 258.615C113.932 258.105 114.752 257.465 115.922 256.665C115.922 263.525 115.922 269.885 115.922 276.235C115.922 280.705 118.142 283.375 121.742 283.475C125.342 283.575 127.862 280.795 127.882 276.175C128.002 269.845 128.002 263.505 128.002 256.595L127.922 256.615Z" stroke="#03B2A4" stroke-width="4" stroke-miterlimit="10"/>
<path d="M26.3018 343.155V307.675H169.592V343.155H26.3018Z" stroke="#03B2A4" stroke-width="4" stroke-miterlimit="10"/>
<path d="M98.2118 355.395C123.292 355.395 148.375 355.395 173.462 355.395C176.722 355.395 180.162 355.455 181.212 359.105C182.372 363.105 183.162 367.665 180.212 371.215C179.032 372.625 176.262 373.275 174.212 373.295C157.492 373.455 140.772 373.385 124.052 373.385C90.2318 373.385 56.4118 373.385 22.5918 373.385C19.3318 373.385 15.8818 373.315 14.8418 369.675C13.6918 365.675 12.8418 361.085 15.8418 357.575C17.1018 356.105 20.0318 355.495 22.2118 355.485C47.5418 355.345 72.8818 355.395 98.2118 355.395Z" stroke="#03B2A4" stroke-width="4" stroke-miterlimit="10"/>
<path d="M116.002 80.055C115.977 83.6267 114.89 87.1103 112.88 90.0625C110.869 93.0147 108.026 95.302 104.712 96.6334C101.397 97.9647 97.7617 98.2799 94.2677 97.5389C90.7736 96.7978 87.579 95.034 85.0904 92.4718C82.6018 89.9097 80.9317 86.6651 80.2927 83.151C79.6537 79.6368 80.0746 76.012 81.5018 72.7378C82.9291 69.4636 85.2982 66.688 88.3077 64.7643C91.3172 62.8406 94.8309 61.8557 98.4018 61.935C103.123 62.0527 107.609 64.0158 110.9 67.4032C114.19 70.7907 116.022 75.3327 116.002 80.055ZM98.0018 73.925C96.8126 73.925 95.6502 74.2785 94.6623 74.9405C93.6743 75.6025 92.9054 76.5431 92.4531 77.643C92.0007 78.7428 91.8855 79.9523 92.1219 81.1178C92.3583 82.2833 92.9357 83.3522 93.7809 84.1889C94.626 85.0256 95.7007 85.5922 96.8685 85.8169C98.0363 86.0416 99.2446 85.9142 100.34 85.4509C101.435 84.9875 102.368 84.2091 103.02 83.2146C103.672 82.22 104.014 81.0542 104.002 79.865C103.986 78.2841 103.347 76.7733 102.223 75.6611C101.1 74.5488 99.5828 73.9249 98.0018 73.925Z" stroke="#03B2A4" stroke-width="4" stroke-miterlimit="10"/>
<path d="M98.3518 25.995C92.6118 25.995 86.8718 25.995 81.1318 25.995C76.7318 25.995 74.0618 23.615 74.1318 19.995C74.2018 16.375 76.7618 13.995 81.2018 13.995C92.4018 13.995 103.632 13.995 114.892 13.995C119.272 13.995 121.962 16.365 121.892 19.995C121.822 23.625 119.182 25.905 114.772 25.945C109.332 25.995 103.842 25.995 98.3518 25.995Z" stroke="#03B2A4" stroke-width="4" stroke-miterlimit="10"/>
<path d="M80.0018 256.615C80.0018 263.515 80.0018 269.865 80.0018 276.225C80.0018 280.825 77.5718 283.615 73.8318 283.495C70.0918 283.375 68.0618 280.705 68.0418 276.235C68.0418 269.875 68.0418 263.525 68.0418 256.675C66.8618 257.485 66.0418 258.135 65.1418 258.675C63.9838 259.456 62.5756 259.777 61.1936 259.573C59.8115 259.37 58.5554 258.657 57.6718 257.575C55.6718 255.405 55.1818 252.575 57.1618 250.405C61.493 245.585 66.0866 241.009 70.9218 236.695C73.4018 234.505 76.3618 235.525 78.6518 237.785C82.3018 241.375 85.9318 244.965 89.5018 248.625C92.5018 251.695 92.7718 254.985 90.4318 257.625C88.0918 260.265 85.0118 260.225 81.4318 257.625C81.1918 257.315 80.8818 257.145 80.0018 256.615Z" stroke="#03B2A4" stroke-width="4" stroke-miterlimit="10"/>
<path d="M128.002 256.595C128.002 263.505 128.002 269.845 128.002 276.195C128.002 280.815 125.602 283.595 121.862 283.495C118.122 283.395 116.072 280.725 116.042 276.255C116.042 269.905 116.042 263.545 116.042 256.685C114.872 257.485 114.042 258.125 113.162 258.635C112.007 259.42 110.601 259.745 109.22 259.547C107.838 259.349 106.58 258.642 105.692 257.565C103.692 255.405 103.182 252.565 105.142 250.395C109.476 245.578 114.069 241.001 118.902 236.685C121.372 234.485 124.342 235.485 126.632 237.735C130.282 241.315 133.922 244.915 137.492 248.575C140.492 251.645 140.782 254.925 138.492 257.575C136.202 260.225 133.062 260.215 129.492 257.575C129.132 257.335 128.832 257.155 128.002 256.595Z" stroke="#03B2A4" stroke-width="4" stroke-miterlimit="10"/>
<path d="M98.0018 73.925C99.191 73.9131 100.357 74.2549 101.351 74.9069C102.346 75.5589 103.124 76.4917 103.588 77.587C104.051 78.6823 104.178 79.8905 103.954 81.0583C103.729 82.2261 103.162 83.3008 102.326 84.146C101.489 84.9911 100.42 85.5685 99.2546 85.8049C98.0891 86.0413 96.8797 85.9261 95.7798 85.4738C94.6799 85.0215 93.7393 84.2525 93.0773 83.2646C92.4154 82.2766 92.0619 81.1142 92.0618 79.925C92.0617 78.344 92.6857 76.8269 93.7979 75.7034C94.9102 74.5799 96.421 73.9408 98.0018 73.925Z" stroke="#03B2A4" stroke-width="4" stroke-miterlimit="10"/>
<path d="M347.632 385.345C353.822 383.045 359.122 379.545 360.872 372.835C361.872 369.175 361.822 365.195 361.802 361.355C361.896 358.212 361.102 355.106 359.51 352.394C357.917 349.682 355.592 347.475 352.802 346.025C350.402 344.715 349.802 343.325 349.802 340.855C349.862 296.575 349.632 252.285 349.942 208.005C350.092 187.175 342.362 170.515 326.282 157.495C320.662 152.945 315.082 148.335 309.662 143.555C304.242 138.775 301.442 132.775 301.872 125.335C302.19 121.338 302.13 117.32 301.692 113.335C300.752 106.015 296.052 101.405 289.752 98.695C291.852 94.345 293.832 90.245 295.822 86.105H307.742C308.332 95.235 309.572 97.625 313.682 97.785C317.792 97.945 319.222 95.565 320.132 86.035C323.242 85.235 325.692 83.625 325.822 80.035C325.972 76.115 323.232 74.445 320.042 73.555C319.582 64.555 318.282 61.705 314.132 61.955C306.342 62.405 308.312 68.805 307.792 73.645H295.412C292.132 61.205 284.202 53.555 272.222 50.355V37.995C276.162 37.995 279.872 37.995 283.592 37.995C293.912 37.855 301.872 30.115 301.942 20.195C302.012 10.085 294.022 2.19503 283.542 2.08503C271.942 2.01837 260.339 2.01837 248.732 2.08503C238.162 2.13503 230.122 9.88504 230.082 19.945C230.042 30.005 238.002 37.835 248.552 37.995C252.262 37.995 255.972 37.995 259.842 37.995V50.445C239.842 55.145 228.132 78.385 242.492 98.555C241.952 98.855 241.492 99.155 240.912 99.425C233.632 103.075 229.912 108.875 230.062 117.105C230.122 120.225 229.972 123.345 230.062 126.465C230.253 129.282 229.813 132.106 228.775 134.732C227.737 137.358 226.127 139.72 224.062 141.645C219.114 146.39 213.924 150.876 208.512 155.085C190.442 168.925 181.502 186.745 182.002 209.885C182.642 239.805 182.162 269.755 182.162 299.695C182.162 313.695 182.162 327.635 182.102 341.605C182.102 342.775 181.622 344.605 180.812 344.985C169.422 350.775 169.122 360.745 170.672 370.995C171.832 378.705 177.522 382.725 184.392 385.305" stroke="#03B2A4" stroke-width="4" stroke-miterlimit="10"/>
<path d="M184.392 385.345C177.522 382.765 171.832 378.745 170.672 370.995C169.122 360.745 169.422 350.775 180.802 344.995C181.612 344.585 182.082 342.785 182.092 341.615C182.182 327.615 182.152 313.675 182.152 299.705C182.152 269.765 182.632 239.815 181.992 209.895C181.502 186.755 190.442 168.895 208.562 155.095C213.974 150.886 219.164 146.4 224.112 141.655C226.177 139.73 227.787 137.368 228.825 134.742C229.863 132.116 230.302 129.292 230.112 126.475C229.992 123.355 230.112 120.235 230.112 117.115C229.942 108.885 233.682 103.115 240.962 99.435C241.492 99.165 241.962 98.865 242.542 98.565C228.182 78.395 239.842 55.155 259.892 50.455V37.995C256.022 37.995 252.312 37.995 248.602 37.995C238.002 37.835 230.002 29.995 230.082 19.905C230.162 9.815 238.162 2.095 248.732 2.045C260.332 1.985 271.935 1.985 283.542 2.045C294.022 2.115 302.012 10.045 301.942 20.155C301.872 30.075 293.942 37.815 283.592 37.955C279.872 37.955 276.162 37.955 272.222 37.955V50.425C284.222 53.625 292.132 61.275 295.412 73.715H307.822C308.342 68.875 306.372 62.475 314.162 62.025C318.312 61.775 319.612 64.585 320.072 73.625C323.262 74.515 326.002 76.185 325.852 80.105C325.722 83.665 323.272 85.275 320.162 86.105C319.252 95.635 317.932 98.025 313.712 97.855C309.492 97.685 308.362 95.305 307.772 86.175H295.852C293.852 90.315 291.852 94.415 289.782 98.765C296.082 101.475 300.782 106.085 301.722 113.405C302.16 117.39 302.22 121.408 301.902 125.405C301.472 132.845 304.262 138.835 309.692 143.625C315.122 148.415 320.692 153.015 326.312 157.565C342.392 170.565 350.122 187.245 349.972 208.075C349.662 252.355 349.892 296.645 349.832 340.925C349.832 343.395 350.392 344.785 352.832 346.095C355.622 347.545 357.947 349.752 359.539 352.464C361.132 355.176 361.926 358.282 361.832 361.425C361.832 365.265 361.832 369.245 360.902 372.905C359.152 379.615 353.852 383.115 347.662 385.415L184.392 385.345ZM194.392 211.405H338.392C337.852 205.565 337.712 199.945 336.742 194.485C334.602 182.405 327.122 173.665 317.992 166.095C312.322 161.405 306.532 156.855 301.122 151.885C293.492 144.885 289.532 136.125 290.012 125.575C290.152 122.465 290.112 119.335 290.012 116.225C289.882 112.225 287.662 109.905 283.702 109.875C271.975 109.788 260.252 109.788 248.532 109.875C244.532 109.875 242.292 112.195 242.152 116.155C242.042 119.155 241.992 122.155 242.152 125.155C242.712 136.155 238.592 145.155 230.552 152.375C224.432 157.875 218.002 163.015 211.702 168.305C198.252 179.495 192.812 193.905 194.352 211.405H194.392ZM194.392 223.775V295.295H337.652V223.775H194.392ZM194.392 343.155H337.592V307.675H194.302L194.392 343.155ZM266.212 355.395C240.882 355.395 215.542 355.395 190.212 355.485C188.032 355.485 185.102 356.105 183.842 357.575C180.842 361.085 181.662 365.645 182.842 369.675C183.842 373.315 187.332 373.395 190.592 373.385C224.412 373.385 258.232 373.385 292.052 373.385C308.772 373.385 325.492 373.455 342.212 373.295C344.272 373.295 347.042 372.625 348.212 371.215C351.212 367.665 350.392 363.135 349.212 359.105C348.162 355.455 344.722 355.395 341.462 355.395C316.368 355.422 291.285 355.422 266.212 355.395ZM284.002 80.055C284.043 76.4863 283.023 72.9857 281.071 69.9982C279.119 67.0106 276.322 64.6708 273.037 63.2762C269.752 61.8816 266.126 61.495 262.621 62.1656C259.115 62.8363 255.888 64.5338 253.35 67.0426C250.812 69.5514 249.076 72.7582 248.365 76.2554C247.653 79.7527 247.997 83.3826 249.353 86.6839C250.709 89.9852 253.016 92.8089 255.98 94.7963C258.945 96.7836 262.433 97.8448 266.002 97.845C270.74 97.8453 275.286 95.9778 278.656 92.6474C282.026 89.317 283.947 84.7924 284.002 80.055ZM266.352 25.995C271.842 25.995 277.352 25.995 282.822 25.995C287.232 25.995 289.922 23.665 289.942 20.045C289.962 16.425 287.272 14.045 282.942 14.045C271.648 14.0117 260.402 13.995 249.202 13.995C244.762 13.995 242.112 16.295 242.082 19.935C242.052 23.575 244.732 25.935 249.082 25.935C254.872 25.995 260.612 25.995 266.352 25.995Z" stroke="#03B2A4" stroke-width="4" stroke-miterlimit="10"/>
<path d="M194.352 211.405C192.812 193.905 198.252 179.495 211.622 168.285C217.922 162.995 224.352 157.855 230.472 152.355C238.472 145.145 242.632 136.115 242.072 125.135C241.922 122.135 241.972 119.135 242.072 116.135C242.212 112.135 244.452 109.875 248.452 109.855C260.172 109.775 271.895 109.775 283.622 109.855C287.622 109.855 289.802 112.215 289.932 116.205C290.042 119.315 290.082 122.445 289.932 125.555C289.452 136.105 293.412 144.845 301.042 151.865C306.452 156.865 312.242 161.385 317.912 166.075C327.042 173.645 334.522 182.385 336.662 194.465C337.662 199.925 337.772 205.545 338.312 211.385L194.352 211.405Z" stroke="#03B2A4" stroke-width="4" stroke-miterlimit="10"/>
<path d="M194.312 223.775H337.652V295.295H194.312V223.775ZM248.002 256.615C248.842 257.145 249.152 257.315 249.432 257.525C252.992 260.165 256.052 260.175 258.432 257.525C260.812 254.875 260.492 251.625 257.502 248.525C253.932 244.865 250.302 241.275 246.652 237.685C244.362 235.425 241.402 234.405 238.922 236.595C234.087 240.909 229.493 245.486 225.162 250.305C223.162 252.475 223.672 255.305 225.672 257.475C226.555 258.557 227.811 259.27 229.194 259.473C230.576 259.677 231.984 259.356 233.142 258.575C234.042 258.065 234.862 257.415 236.042 256.575C236.042 263.425 236.042 269.775 236.042 276.135C236.042 280.605 238.242 283.285 241.832 283.395C245.422 283.505 248.002 280.825 248.002 276.225C248.072 269.865 248.002 263.515 248.002 256.615ZM295.922 256.615C296.792 257.175 297.092 257.355 297.372 257.555C300.922 260.195 304.002 260.195 306.372 257.555C308.742 254.915 308.372 251.665 305.372 248.555C301.802 244.895 298.162 241.295 294.512 237.715C292.222 235.465 289.252 234.465 286.782 236.665C281.949 240.981 277.356 245.558 273.022 250.375C271.022 252.545 271.572 255.375 273.572 257.545C274.46 258.622 275.718 259.329 277.1 259.527C278.481 259.725 279.887 259.4 281.042 258.615C281.932 258.105 282.752 257.465 283.922 256.665C283.922 263.525 283.922 269.885 283.922 276.235C283.922 280.705 286.142 283.375 289.742 283.475C293.342 283.575 295.862 280.795 295.882 276.175C296.002 269.845 296.002 263.505 296.002 256.595L295.922 256.615Z" stroke="#03B2A4" stroke-width="4" stroke-miterlimit="10"/>
<path d="M194.302 343.155V307.675H337.592V343.155H194.302Z" stroke="#03B2A4" stroke-width="4" stroke-miterlimit="10"/>
<path d="M266.212 355.395C291.292 355.395 316.375 355.395 341.462 355.395C344.722 355.395 348.162 355.455 349.212 359.105C350.372 363.105 351.162 367.665 348.212 371.215C347.032 372.625 344.262 373.275 342.212 373.295C325.492 373.455 308.772 373.385 292.052 373.385C258.232 373.385 224.412 373.385 190.592 373.385C187.332 373.385 183.882 373.315 182.842 369.675C181.692 365.675 180.842 361.085 183.842 357.575C185.102 356.105 188.032 355.495 190.212 355.485C215.542 355.345 240.882 355.395 266.212 355.395Z" stroke="#03B2A4" stroke-width="4" stroke-miterlimit="10"/>
<path d="M284.002 80.055C283.977 83.6267 282.89 87.1103 280.88 90.0625C278.869 93.0147 276.026 95.302 272.712 96.6334C269.397 97.9647 265.762 98.2799 262.268 97.5389C258.774 96.7978 255.579 95.034 253.09 92.4718C250.602 89.9097 248.932 86.6651 248.293 83.151C247.654 79.6368 248.075 76.012 249.502 72.7378C250.929 69.4636 253.298 66.688 256.308 64.7643C259.317 62.8406 262.831 61.8557 266.402 61.935C271.123 62.0527 275.609 64.0158 278.9 67.4032C282.19 70.7907 284.022 75.3327 284.002 80.055ZM266.002 73.925C264.813 73.925 263.65 74.2785 262.662 74.9405C261.674 75.6025 260.905 76.5431 260.453 77.643C260.001 78.7428 259.885 79.9523 260.122 81.1178C260.358 82.2833 260.936 83.3522 261.781 84.1889C262.626 85.0256 263.701 85.5922 264.869 85.8169C266.036 86.0416 267.245 85.9142 268.34 85.4509C269.435 84.9875 270.368 84.2091 271.02 83.2146C271.672 82.22 272.014 81.0542 272.002 79.865C271.986 78.2841 271.347 76.7733 270.223 75.6611C269.1 74.5488 267.583 73.9249 266.002 73.925Z" stroke="#03B2A4" stroke-width="4" stroke-miterlimit="10"/>
<path d="M266.352 25.995C260.612 25.995 254.872 25.995 249.132 25.995C244.732 25.995 242.062 23.615 242.132 19.995C242.202 16.375 244.762 13.995 249.202 13.995C260.402 13.995 271.632 13.995 282.892 13.995C287.272 13.995 289.962 16.365 289.892 19.995C289.822 23.625 287.182 25.905 282.772 25.945C277.332 25.995 271.842 25.995 266.352 25.995Z" stroke="#03B2A4" stroke-width="4" stroke-miterlimit="10"/>
<path d="M248.002 256.615C248.002 263.515 248.002 269.865 248.002 276.225C248.002 280.825 245.572 283.615 241.832 283.495C238.092 283.375 236.062 280.705 236.042 276.235C236.042 269.875 236.042 263.525 236.042 256.675C234.862 257.485 234.042 258.135 233.142 258.675C231.984 259.456 230.576 259.777 229.194 259.573C227.811 259.37 226.555 258.657 225.672 257.575C223.672 255.405 223.182 252.575 225.162 250.405C229.493 245.585 234.087 241.009 238.922 236.695C241.402 234.505 244.362 235.525 246.652 237.785C250.302 241.375 253.932 244.965 257.502 248.625C260.502 251.695 260.772 254.985 258.432 257.625C256.092 260.265 253.012 260.225 249.432 257.625C249.192 257.315 248.882 257.145 248.002 256.615Z" stroke="#03B2A4" stroke-width="4" stroke-miterlimit="10"/>
<path d="M296.002 256.595C296.002 263.505 296.002 269.845 296.002 276.195C296.002 280.815 293.602 283.595 289.862 283.495C286.122 283.395 284.072 280.725 284.042 276.255C284.042 269.905 284.042 263.545 284.042 256.685C282.872 257.485 282.042 258.125 281.162 258.635C280.007 259.42 278.601 259.745 277.22 259.547C275.838 259.349 274.58 258.642 273.692 257.565C271.692 255.405 271.182 252.565 273.142 250.395C277.476 245.578 282.069 241.001 286.902 236.685C289.372 234.485 292.342 235.485 294.632 237.735C298.282 241.315 301.922 244.915 305.492 248.575C308.492 251.645 308.782 254.925 306.492 257.575C304.202 260.225 301.062 260.215 297.492 257.575C297.132 257.335 296.832 257.155 296.002 256.595Z" stroke="#03B2A4" stroke-width="4" stroke-miterlimit="10"/>
<path d="M266.002 73.925C267.191 73.9131 268.357 74.2549 269.351 74.9069C270.346 75.5589 271.124 76.4917 271.588 77.587C272.051 78.6823 272.178 79.8905 271.954 81.0583C271.729 82.2261 271.162 83.3008 270.326 84.146C269.489 84.9911 268.42 85.5685 267.255 85.8049C266.089 86.0413 264.88 85.9261 263.78 85.4738C262.68 85.0215 261.739 84.2525 261.077 83.2646C260.415 82.2766 260.062 81.1142 260.062 79.925C260.062 78.344 260.686 76.8269 261.798 75.7034C262.91 74.5799 264.421 73.9408 266.002 73.925Z" stroke="#03B2A4" stroke-width="4" stroke-miterlimit="10"/>
</svg>
