<svg xmlns="http://www.w3.org/2000/svg" viewBox="0 0 383.64 387.24"><defs><style>.cls-1{fill:none;stroke:#03b2a4;stroke-miterlimit:10;stroke-width:4px;}</style></defs><title>polar</title><g id="Livello_2" data-name="Livello 2"><g id="Livello_1-2" data-name="Livello 1"><g id="polar"><path class="cls-1" d="M184.43,2c8.73,5.24,17.42,10.55,26.19,15.7q35.46,20.83,71,41.5A10.06,10.06,0,0,1,286.8,66c4.94,19.94,10.05,39.84,15.14,59.75a22.07,22.07,0,0,0,1.52,4.59q9.69,19.17,19.57,38.25a8.42,8.42,0,0,0,3.08,3.05c6.71,4.06,13.6,7.86,20.23,12a14,14,0,0,1,4.89,5.29c8.07,16.16,14.95,33,24.18,48.45,6.3,10.54,6.33,21.13,6.2,32.26-.08,6.48-.61,13-1,19.43a52.4,52.4,0,0,1-.75,7.42A19.71,19.71,0,0,1,351.64,310c-12.08-6.25-24.32-12.13-37.66-15.18-31.36-7.18-56.57,2.7-76.57,27.46-3.71,4.59-7.86,9.3-12.8,12.33-11.38,7-17.8,17.07-21.58,29.39-3.65,11.92-15.5,20.83-27.91,21.25-3,.1-4.55-1.65-5.74-4-3.51-6.88-6.85-13.84-10.49-20.65-7.44-14-15.23-27.73-22.5-41.77-6.4-12.36-17.1-17.23-30.13-18a71.56,71.56,0,0,0-16.67.88,20,20,0,0,0-9.14,4.72c-7.82,6.89-17.12,8.13-26.82,7.58-5.12-.29-8-4.33-10.8-8.37A182.81,182.81,0,0,0,28.63,287a31.61,31.61,0,0,0-19-10.36,4.89,4.89,0,0,1-3.27-3,196,196,0,0,1-4.21-20.41c-.74-5.49,1.84-10.24,4.64-15,11.82-20.08,23.29-40.37,35-60.52a18.37,18.37,0,0,1,4.38-4.93c6.4-5.17,13-10.1,19.37-15.3a6.09,6.09,0,0,0,2.07-3.92c.63-12.33,1.19-24.67,1.44-37,.08-4,1.72-5.4,5.4-6.06,16.54-3,33-6.23,49.56-9.24a6.77,6.77,0,0,0,5.3-3.91q24.43-45.42,49.08-90.72c.88-1.62,2-3.08,3.08-4.62Zm25.22,23c.07,1.37.07,2.11.15,2.84q1.9,16.15,3.83,32.3c3.11,25.87,5.82,51.79,9.55,77.56,1.35,9.27-.1,15.76-7.18,22.57-18,17.28-34.95,35.59-52.34,53.47-3.37,3.47-4.91,3.35-7.66-.52-1.73-2.44-3.43-4.91-5.14-7.36q-30.68-44-61.38-88.06c-.76-1.08-2.17-2.56-3.17-2.48a99,99,0,0,0-10.49,1.93c-.46,11.87-1.23,23.57-1.24,35.27,0,5.07-1.66,8.3-5.72,11.14C63,167.75,57.46,172.41,51.58,177c1,1.06,1.65,1.9,2.41,2.68q27.12,27.91,54.21,55.85a9.79,9.79,0,0,0,7.78,3.32q123.86-.19,247.72-.23c1.29,0,2.59-.11,4.27-.2-7.79-16-15.34-31.56-23-47.06a6.86,6.86,0,0,0-2.76-2.37c-6.74-4-13.6-7.85-20.24-12a13.76,13.76,0,0,1-4.73-5c-6.6-12.57-13-25.24-19.41-37.92a27.61,27.61,0,0,1-2.09-5.56c-5.14-19.89-10.17-39.81-15.39-59.69a7.73,7.73,0,0,0-3.09-4.17c-6.33-4-12.84-7.66-19.29-11.43C242.08,43.91,226.17,34.62,209.65,25ZM175.27,378.35c1.32-.29,2-.43,2.77-.61s1.19-.38,1.79-.54c8.76-2.39,14.83-7.15,17.39-16.53,2.82-10.33,7.51-20.21,16.71-26.34s16.28-14.07,23.55-22.14c18.82-20.87,42.33-29.43,70.33-25.22,16.39,2.47,31.28,8.95,45.81,16.52,9.58,5,19.43-.52,20.13-11.27.55-8.21,1.18-16.43,1.24-24.66,0-6.2-.69-12.41-1.2-18.61-.22-2.6-1.61-3.66-4.5-3.65q-81.19.18-162.4.17c-32.42,0-64.85.22-97.27.24s-64.61,0-96.91-.15c-2.39,0-3.78.93-3.55,3.15.7,6.76,1.6,13.49,2.63,20.21.11.71,1.56,1.3,2.47,1.79,5.33,2.87,11.1,5.13,15.93,8.66,7.84,5.74,13.57,13.5,18.1,22.11,2,3.75,4.69,6.64,9.36,6.13,6.8-.73,13.42-1.72,18.89-6.74a30.27,30.27,0,0,1,9.7-5.38c7.05-2.65,14.42-2.19,21.8-1.47,15.15,1.48,27,7.91,34.35,21.75,6.88,13,14.11,25.78,21,38.76C167.52,362.33,171.28,370.32,175.27,378.35Zm-15-170.82L216,150.18c-25.67-19.38-51-38.48-76.47-57.75-2.22,4.09-4,7.82-6.22,11.24a8.41,8.41,0,0,1-4.47,3.31c-4.7,1.22-9.52,1.91-14.29,2.82l-19.71,3.79ZM142.74,86.44l73.86,55.78c-.15-1.78-.21-2.85-.33-3.91q-2.84-23.57-5.66-47.13-4.12-34.32-8.31-68.64a4.07,4.07,0,0,0-1.55-2.7c-5.39-3.32-10.89-6.46-16.62-9.82ZM101.86,238.58,46.94,182.12l-32.5,56.46Z"/><path class="cls-1" d="M209.65,25c16.52,9.66,32.43,18.95,48.33,28.26,6.45,3.77,13,7.47,19.29,11.43a7.73,7.73,0,0,1,3.09,4.17c5.22,19.88,10.25,39.8,15.39,59.69a27.61,27.61,0,0,0,2.09,5.56c6.41,12.68,12.81,25.35,19.41,37.92a13.76,13.76,0,0,0,4.73,5c6.64,4.17,13.5,8,20.24,12a6.86,6.86,0,0,1,2.76,2.37c7.65,15.5,15.2,31.06,23,47.06-1.68.09-3,.2-4.27.2q-123.85.09-247.72.23a9.79,9.79,0,0,1-7.78-3.32q-27-28-54.21-55.85c-.76-.78-1.46-1.62-2.41-2.68,5.88-4.59,11.39-9.25,17.28-13.38,4.06-2.84,5.71-6.07,5.72-11.14,0-11.7.78-23.4,1.24-35.27a99,99,0,0,1,10.49-1.93c1-.08,2.41,1.4,3.17,2.48q30.75,44,61.38,88.06c1.71,2.45,3.41,4.92,5.14,7.36,2.75,3.87,4.29,4,7.66.52C181.05,195.82,198,177.51,216,160.23c7.08-6.81,8.53-13.3,7.18-22.57-3.73-25.77-6.44-51.69-9.55-77.56Q211.7,44,209.8,27.8C209.72,27.07,209.72,26.33,209.65,25Z"/><path class="cls-1" d="M175.27,378.35c-4-8-7.75-16-11.89-23.82-6.88-13-14.11-25.78-21-38.76C135,301.93,123.19,295.5,108,294c-7.38-.72-14.75-1.18-21.8,1.47a30.27,30.27,0,0,0-9.7,5.38c-5.47,5-12.09,6-18.89,6.74-4.67.51-7.39-2.38-9.36-6.13-4.53-8.61-10.26-16.37-18.1-22.11-4.83-3.53-10.6-5.79-15.93-8.66-.91-.49-2.36-1.08-2.47-1.79-1-6.72-1.93-13.45-2.63-20.21-.23-2.22,1.16-3.16,3.55-3.15q48.45.16,96.91.15c32.42,0,64.85-.21,97.27-.24q81.21-.1,162.4-.17c2.89,0,4.28,1,4.5,3.65.51,6.2,1.24,12.41,1.2,18.61-.06,8.23-.69,16.45-1.24,24.66-.7,10.75-10.55,16.26-20.13,11.27-14.53-7.57-29.42-14.05-45.81-16.52-28-4.21-51.51,4.35-70.33,25.22-7.27,8.07-14.36,16-23.55,22.14s-13.89,16-16.71,26.34c-2.56,9.38-8.63,14.14-17.39,16.53-.6.16-1.19.38-1.79.54S176.59,378.06,175.27,378.35Z"/><path class="cls-1" d="M160.29,207.53,94.83,113.59l19.71-3.79c4.77-.91,9.59-1.6,14.29-2.82a8.41,8.41,0,0,0,4.47-3.31c2.25-3.42,4-7.15,6.22-11.24C165,111.7,190.32,130.8,216,150.18Z"/><path class="cls-1" d="M142.74,86.44,184.13,10c5.73,3.36,11.23,6.5,16.62,9.82a4.07,4.07,0,0,1,1.55,2.7q4.23,34.32,8.31,68.64,2.83,23.57,5.66,47.13c.12,1.06.18,2.13.33,3.91Z"/><path class="cls-1" d="M101.86,238.58H14.44l32.5-56.46Z"/></g></g></g></svg>