<svg xmlns="http://www.w3.org/2000/svg" viewBox="0 0 201.1 346.6"><defs><style>.cls-1{fill:none;stroke:#03b2a4;stroke-miterlimit:10;stroke-width:4px;}</style></defs><title>temperature</title><g id="Livello_2" data-name="Livello 2"><g id="Livello_1-2" data-name="Livello 1"><g id="temperature"><path class="cls-1" d="M172.83,173.78c-6.24,0-12.49-.16-18.72.09-2,.08-4.57.74-5.62,2.1a8.59,8.59,0,0,0-1.32,6.39c.73,3.2,3.76,4.18,6.85,4.19,12.6,0,25.2.08,37.8,0,4.65,0,7.34-2.65,7.27-6.52s-2.78-6.16-7.53-6.21C185.32,173.73,179.08,173.78,172.83,173.78Zm.27-127.72c-6.35,0-12.71-.05-19.06,0-4.72.06-7.39,2.43-7.38,6.34s2.77,6.36,7.43,6.39q18.72.12,37.46,0c4.83,0,7.64-2.62,7.54-6.61s-2.79-6.09-7.6-6.13C185.36,46,179.23,46.06,173.1,46.06Zm-.44,76.53c6.35,0,12.71,0,19.06,0,4.64,0,7.4-2.48,7.38-6.36s-2.78-6.34-7.45-6.36q-18.72-.09-37.45,0c-4.7,0-7.47,2.42-7.54,6.26-.07,4,2.72,6.43,7.61,6.47C160.4,122.62,166.53,122.59,172.66,122.59Zm-.25-31.93c3.78,0,7.57.11,11.35,0,4.26-.16,6.8-2.56,6.88-6.19S188.16,78.08,184,78c-7.56-.21-15.13-.2-22.69,0-4.24.11-6.69,2.74-6.68,6.39s2.49,6.09,6.75,6.27C165.06,90.78,168.74,90.66,172.41,90.66Zm.18,51.17h-11c-4.18.17-6.81,2.5-6.93,6.13s2.55,6.51,6.83,6.58q11.18.19,22.36,0c4-.07,6.8-2.8,6.83-6.32s-2.83-6.29-7.07-6.38C179.93,141.78,176.26,141.84,172.59,141.83Z"/><path class="cls-1" d="M79.27,344.6c-7.23-1.68-14.71-2.67-21.65-5.17C33,330.58,15.75,313.76,7.17,289.07-2.95,260,1.86,232.77,21,208.6c4.7-5.93,11-10.67,16.8-15.63,2-1.69,2.87-3.17,2.87-5.77q-.12-69,0-138.1c0-19.64,8.51-34.42,26.4-42.9,27.7-13.14,60.63,6.08,63.2,36.61.23,2.66.33,5.34.33,8q0,68.22,0,136.43a6.26,6.26,0,0,0,2.93,5.69c27.38,20.64,39.5,48.06,34.24,82-5.34,34.45-31.1,60.58-65.25,67.88-3.25.69-6.55,1.18-9.82,1.76ZM53.77,119.14c0,24.41,0,48.83,0,73.25,0,3.71-1.45,6.12-4.37,8.39-6,4.63-12.3,9.07-17.13,14.73C15.94,234.7,11,257,18.25,281.13,28.37,314.94,59,334.79,94,331.28c34.64-3.47,62.81-34.48,62.48-69.2-.24-26.1-11.26-46.57-33.31-60.78-3.69-2.37-5.24-5.13-5.23-9.56q.19-69.9.06-139.81a91.69,91.69,0,0,0-.55-9.66C115.2,21.54,90.79,8.51,72.19,18c-12.43,6.37-18.4,16.68-18.41,30.53Q53.75,83.85,53.77,119.14Z"/><path class="cls-1" d="M172.83,173.78c6.25,0,12.49-.05,18.73,0,4.75,0,7.46,2.35,7.53,6.21s-2.62,6.48-7.27,6.52c-12.6.1-25.2.05-37.8,0-3.09,0-6.12-1-6.85-4.19a8.59,8.59,0,0,1,1.32-6.39c1-1.36,3.66-2,5.62-2.1C160.34,173.62,166.59,173.78,172.83,173.78Z"/><path class="cls-1" d="M173.1,46.06c6.13,0,12.26,0,18.39,0,4.81,0,7.5,2.27,7.6,6.13s-2.71,6.58-7.54,6.61q-18.74.09-37.46,0c-4.66,0-7.41-2.54-7.43-6.39s2.66-6.28,7.38-6.34C160.39,46,166.75,46.06,173.1,46.06Z"/><path class="cls-1" d="M172.66,122.59c-6.13,0-12.26,0-18.39,0-4.89,0-7.68-2.45-7.61-6.47.07-3.84,2.84-6.24,7.54-6.26q18.72-.07,37.45,0c4.67,0,7.43,2.5,7.45,6.36s-2.74,6.32-7.38,6.36C185.37,122.63,179,122.59,172.66,122.59Z"/><path class="cls-1" d="M172.41,90.66c-3.67,0-7.35.12-11,0-4.26-.18-6.74-2.6-6.75-6.27s2.44-6.28,6.68-6.39c7.56-.19,15.13-.2,22.69,0,4.14.11,6.69,2.91,6.62,6.47s-2.62,6-6.88,6.19C180,90.77,176.19,90.66,172.41,90.66Z"/><path class="cls-1" d="M172.59,141.84c3.67,0,7.34-.06,11,0,4.24.09,7.1,2.73,7.07,6.38s-2.78,6.25-6.83,6.32q-11.18.19-22.36,0c-4.28-.07-6.95-2.81-6.83-6.58s2.75-6,6.93-6.13h11Z"/><path class="cls-1" d="M53.77,119.14q0-35.29,0-70.57c0-13.85,6-24.16,18.41-30.53,18.6-9.53,43,3.5,45.3,24.23a91.69,91.69,0,0,1,.55,9.66q0,69.91-.06,139.81c0,4.43,1.54,7.19,5.23,9.56,22,14.21,33.07,34.68,33.31,60.78.33,34.72-27.84,65.73-62.48,69.2C59,334.79,28.37,314.94,18.25,281.13,11,257,15.94,234.7,32.32,215.51c4.83-5.66,11.18-10.1,17.13-14.73,2.92-2.27,4.38-4.68,4.37-8.39C53.73,168,53.77,143.55,53.77,119.14ZM92.18,215v-3.87q0-44.82,0-89.64a25,25,0,0,0-.22-4.33c-.56-3.19-2.74-4.75-5.79-5.08a6,6,0,0,0-6.25,4.49,20.57,20.57,0,0,0-.49,5q0,44.82,0,89.64V215c-26.64,5.08-40.28,27.77-37.4,49.72a44.1,44.1,0,0,0,43.41,38.32c22.69.18,41.1-15.89,44.34-39.11C132.41,245,120.71,220.49,92.18,215Z"/><path class="cls-1" d="M92.18,215c28.53,5.49,40.23,30,37.57,49-3.24,23.22-21.65,39.29-44.34,39.11A44.1,44.1,0,0,1,42,264.76C39.12,242.81,52.76,220.12,79.4,215v-3.87q0-44.82,0-89.64a20.57,20.57,0,0,1,.49-5,6,6,0,0,1,6.25-4.49c3,.33,5.23,1.89,5.79,5.08a25,25,0,0,1,.22,4.33q0,44.82,0,89.64ZM54.53,258.9a31.65,31.65,0,0,0,31.25,31.35c16.94.12,31.14-14,31.43-31.21.28-17-14.34-31.6-31.44-31.49A31.65,31.65,0,0,0,54.53,258.9Z"/><path class="cls-1" d="M54.53,258.9a31.65,31.65,0,0,1,31.24-31.35c17.1-.11,31.72,14.54,31.44,31.49-.29,17.23-14.49,31.33-31.43,31.21A31.65,31.65,0,0,1,54.53,258.9Z"/></g></g></g></svg>