<svg xmlns="http://www.w3.org/2000/svg" viewBox="0 0 384.79 375.42"><defs><style>.cls-1{fill:none;stroke:#03b2a4;stroke-miterlimit:10;stroke-width:4px;}</style></defs><title>ocean</title><g id="Livello_2" data-name="Livello 2"><g id="Livello_1-2" data-name="Livello 1"><g id="ocean"><path class="cls-1" d="M373.35,231.2a51.74,51.74,0,0,1-3.68,4.46,21,21,0,0,1-4.41,3.44c-9,5-18.9,2.07-26.14-6.75-4.18-5.1-8.11-10.42-12.55-15.28a7.81,7.81,0,0,1-2.39-5.82q.07-71.13,0-142.26c0-9,.2-18-.1-26.95C323.24,16,297.85-3,272.54,3.19,253,8,240.23,24.42,240.22,45.08q-.06,80.49.09,161c0,5.78-.67,10.48-5.64,14.29-2.41,1.84-4.3,3.65-7.57,3.87-6.13.41-11.56,2.93-16.44,6.62-2.79,2.1-5.57,4.23-8.41,6.27-8.26,5.94-17.9,5.93-26.16,0-3.24-2.33-6.34-4.87-9.63-7.13a33.61,33.61,0,0,0-39,.31c-3.07,2.15-6,4.49-9,6.7-8.41,6.11-18.07,6.13-26.46.06-2.93-2.13-5.76-4.4-8.71-6.49a33.92,33.92,0,0,0-25.15-6.23c-7.91,1.09-14.28,5.14-20.16,10.06-8.64,7.24-17.83,9.84-28.53,3.86-2.23,3.32-4.34,6.49-6.45,9.64,10.45,7.56,25.57,7.46,36.93-.15,3.31-2.22,6.43-4.73,9.65-7.1,8.73-6.42,18.38-6.46,27.06-.11,2.92,2.14,5.76,4.39,8.72,6.48A33.63,33.63,0,0,0,125,247c3.16-2.23,6.18-4.66,9.33-6.91,8.12-5.81,17.7-5.79,25.84,0,2.34,1.67,4.6,3.43,6.9,5.16,14.94,11.2,29.39,11.2,44.32,0,3.36-2.52,6.77-5,10.15-7.45-6.07,15.88-7.19,31.68-2.34,47.19l-17.07,12.09c-8.16,5.76-17.76,5.75-25.85-.07-3.25-2.33-6.35-4.87-9.64-7.13a33.62,33.62,0,0,0-39.3.34c-2.65,1.88-5.21,3.88-7.82,5.81-9.75,7.22-19.09,7.15-28.86-.2-2.69-2-5.35-4.11-8.13-6a33.64,33.64,0,0,0-39,.25c-3.16,2.23-6.17,4.67-9.33,6.92-7,5-14.42,5.82-22.3,2.28-.76-.35-1.55-.65-2.53-1L2.85,308c1.28.73,2.3,1.42,3.4,1.93,11.86,5.5,23.28,4.6,34.15-2.59,3.43-2.27,6.59-4.94,10-7.33a21.26,21.26,0,0,1,25.53-.07c3,2.08,5.8,4.33,8.72,6.47,12.59,9.24,28.12,9.34,40.84.24,2.84-2,5.59-4.21,8.4-6.28,8.37-6.14,18.08-6.2,26.45-.16,2.94,2.12,5.79,4.37,8.72,6.49a33.7,33.7,0,0,0,39.92.31c3.17-2.22,6.18-4.66,9.33-6.92,8.1-5.82,17.7-5.83,25.84,0,2.85,2,5.6,4.18,8.42,6.26,12.74,9.38,28.27,9.46,41.13.19,2.84-2,5.58-4.21,8.41-6.27,8.23-6,17.91-6,26.15-.12,2.94,2.12,5.8,4.35,8.7,6.51,15.19,11.35,33.6,8.59,44.88-6.46l-7.9-8.68c-4.5,4.72-8.88,9.24-15.63,9.9s-12.07-2.1-16.91-6.72a65.68,65.68,0,0,0,5.57-42.36c14.95,3.89,26.15-1.24,35.17-12.25C379.36,237.26,376.73,234.62,373.35,231.2ZM3,367.67c10,7.47,25.22,7.51,36.51.11,3.33-2.19,6.47-4.68,9.67-7.07,9-6.75,18.65-6.84,27.65-.22,2.71,2,5.38,4.06,8.11,6a33.7,33.7,0,0,0,39.91.37c3.17-2.22,6.19-4.65,9.33-6.91,8.09-5.84,17.71-5.88,25.83-.11,2.95,2.1,5.8,4.35,8.72,6.48,12.43,9.1,27.95,9.22,40.52.27,3-2.09,5.79-4.35,8.72-6.48,8.35-6.09,18-6.09,26.44,0,2.83,2.05,5.59,4.21,8.41,6.27a33.71,33.71,0,0,0,40.22.37c3.06-2.15,6-4.49,9-6.69,8.23-6,17.9-6,26.14-.11,2.84,2,5.61,4.18,8.4,6.27,15.45,11.57,33.75,8.93,45.39-6.51l-8.66-8.9a35.53,35.53,0,0,1-3.07,4.06c-8,7.93-17.31,8.58-26.27,1.91-3-2.24-5.95-4.56-9-6.71a33.6,33.6,0,0,0-39.29-.16c-3.08,2.12-6,4.48-9,6.69-8.7,6.35-18.41,6.3-27.06-.11-3-2.23-5.94-4.57-9-6.69a33.57,33.57,0,0,0-38.36-.26c-3.11,2.08-6,4.43-9.05,6.66-9.37,6.91-18.87,6.84-28.25-.21-2.6-1.95-5.16-3.94-7.81-5.81a33.63,33.63,0,0,0-39.6-.17c-3.18,2.21-6.19,4.66-9.33,6.92-8.25,5.91-17.92,5.87-26.15-.1-2.93-2.13-5.76-4.39-8.71-6.49-12.44-8.9-27.73-8.92-40.21-.06-3.16,2.24-6.16,4.7-9.34,6.9-6.79,4.7-14,5.49-21.65,2.14-.88-.38-1.77-.72-2.82-1.15ZM36.17,79.78a48,48,0,0,0,47.79,48c26.33.14,48.15-21.42,48.21-47.63.07-26.48-21.32-48.14-47.62-48.21A48,48,0,0,0,36.17,79.78ZM78.48,2.1V25.73H89.89V2.1ZM29.89,85.72V74.2H6.35V85.72Zm132,.1V74.16h-23.4V85.82Zm-72,71.8v-23.5H78.37v23.5ZM34.33,22.39l-7.58,7.16L38.31,41.16l7.57-7.11Zm88.41,11.42,7,7.67,11.73-11.71-7.17-7.43Zm-.23,92,11.62,11.72,7.6-7.74c-3.83-3.84-7.65-7.69-11.36-11.42Zm-96,4.06,7.62,7.63,11.73-11.66-7.64-7.67Z"/><path class="cls-1" d="M373.35,231.2c3.38,3.42,6,6.06,8.74,8.81-9,11-20.22,16.14-35.17,12.25a65.68,65.68,0,0,1-5.57,42.36c4.84,4.62,10.17,7.38,16.91,6.72s11.13-5.18,15.63-9.9l7.9,8.68c-11.28,15.05-29.69,17.81-44.88,6.46-2.9-2.16-5.76-4.39-8.7-6.51-8.24-5.91-17.92-5.86-26.15.12-2.83,2.06-5.57,4.23-8.41,6.27-12.86,9.27-28.39,9.19-41.13-.19C249.7,304.19,247,302,244.1,300c-8.14-5.8-17.74-5.79-25.84,0-3.15,2.26-6.16,4.7-9.33,6.92a33.7,33.7,0,0,1-39.92-.31c-2.93-2.12-5.78-4.37-8.72-6.49-8.37-6-18.08-6-26.45.16-2.81,2.07-5.56,4.24-8.4,6.28-12.72,9.1-28.25,9-40.84-.24-2.92-2.14-5.77-4.39-8.72-6.47a21.26,21.26,0,0,0-25.53.07c-3.36,2.39-6.52,5.06-10,7.33-10.87,7.19-22.29,8.09-34.15,2.59-1.1-.51-2.12-1.2-3.4-1.93l6.47-9.66c1,.4,1.77.7,2.53,1,7.88,3.54,15.32,2.68,22.3-2.28,3.16-2.25,6.17-4.69,9.33-6.92a33.64,33.64,0,0,1,39-.25c2.78,1.9,5.44,4,8.13,6,9.77,7.35,19.11,7.42,28.86.2,2.61-1.93,5.17-3.93,7.82-5.81a33.62,33.62,0,0,1,39.3-.34c3.29,2.26,6.39,4.8,9.64,7.13,8.09,5.82,17.69,5.83,25.85.07l17.07-12.09c-4.85-15.51-3.73-31.31,2.34-47.19-3.38,2.48-6.79,4.93-10.15,7.45-14.93,11.17-29.38,11.17-44.32,0-2.3-1.73-4.56-3.49-6.9-5.16-8.14-5.81-17.72-5.83-25.84,0-3.15,2.25-6.17,4.68-9.33,6.91a33.63,33.63,0,0,1-39.61,0c-3-2.09-5.8-4.34-8.72-6.48-8.68-6.35-18.33-6.31-27.06.11-3.22,2.37-6.34,4.88-9.65,7.1-11.36,7.61-26.48,7.71-36.93.15,2.11-3.15,4.22-6.32,6.45-9.64,10.7,6,19.89,3.38,28.53-3.86,5.88-4.92,12.25-9,20.16-10.06a33.92,33.92,0,0,1,25.15,6.23c3,2.09,5.78,4.36,8.71,6.49,8.39,6.07,18,6,26.46-.06,3-2.21,6-4.55,9-6.7a33.61,33.61,0,0,1,39-.31c3.29,2.26,6.39,4.8,9.63,7.13,8.26,6,17.9,6,26.16,0,2.84-2,5.62-4.17,8.41-6.27,4.88-3.69,10.31-6.21,16.44-6.62,3.27-.22,5.16-2,7.57-3.87,5-3.81,5.66-8.51,5.64-14.29q-.27-80.49-.09-161C240.23,24.42,253,8,272.54,3.19,297.85-3,323.24,16,324.12,42c.3,9,.1,18,.1,26.95q0,71.13,0,142.26a7.81,7.81,0,0,0,2.39,5.82c4.44,4.86,8.37,10.18,12.55,15.28,7.24,8.82,17.13,11.75,26.14,6.75a21,21,0,0,0,4.41-3.44A51.74,51.74,0,0,0,373.35,231.2Zm-42.07,56.26c10.44-20.38,4.12-47.84-14.58-63.1a11.13,11.13,0,0,1-4.55-9.55q.15-83.68.07-167.37c0-1.74,0-3.49-.07-5.24A29.93,29.93,0,0,0,277,14.52c-14.88,2.78-24.78,14.77-24.79,30.28q-.06,85.19.05,170.36a10.36,10.36,0,0,1-4.27,8.92,53.16,53.16,0,0,0-17.64,56.57c.68,2.24,1.65,3.21,4,3.38a33.16,33.16,0,0,1,18.45,7.52c2.15,1.7,4.39,3.31,6.59,4.94,8.88,6.58,18.41,6.5,27.4.18,5.48-3.86,11.29-7.24,16.91-10.92a10.66,10.66,0,0,0,2.62-2.57,29.58,29.58,0,0,0-12.18-44.88c-4.57-1.93-6.06-4.64-6.05-9.38q.17-88.54.07-177.1c0-5.06-2.16-7.84-6-7.84s-6,2.77-6,7.84v2.62q0,87.24.07,174.47c0,4.75-1.47,7.51-6,9.42-9.49,4-15.57,11.34-17.25,21.52-.82,5-.14,10.31-.14,16.1l-10.08,3.57c-.46-1.31-.85-2.22-1.11-3.16a41.56,41.56,0,0,1,19.5-46.88c2.41-1.37,3.12-2.82,3.12-5.52q-.15-81.24-.07-162.49c0-4.12-.12-8.25.05-12.36A18,18,0,0,1,282.14,32c10.4,0,18.06,8.08,18.07,19.25q0,86.48,0,173a5.21,5.21,0,0,0,3,5.23c13.75,8.21,21,20.48,20.89,36.46,0,6.07-2,12.13-3,18.2Z"/><path class="cls-1" d="M3,367.67l6.29-9.46c1,.43,1.94.77,2.82,1.15,7.62,3.35,14.86,2.56,21.65-2.14,3.18-2.2,6.18-4.66,9.34-6.9,12.48-8.86,27.77-8.84,40.21.06,3,2.1,5.78,4.36,8.71,6.49,8.23,6,17.9,6,26.15.1,3.14-2.26,6.15-4.71,9.33-6.92a33.63,33.63,0,0,1,39.6.17c2.65,1.87,5.21,3.86,7.81,5.81,9.38,7.05,18.88,7.12,28.25.21,3-2.23,5.94-4.58,9.05-6.66a33.57,33.57,0,0,1,38.36.26c3.09,2.12,6,4.46,9,6.69,8.65,6.41,18.36,6.46,27.06.11,3-2.21,5.94-4.57,9-6.69a33.6,33.6,0,0,1,39.29.16c3.07,2.15,6,4.47,9,6.71,9,6.67,18.31,6,26.27-1.91a35.53,35.53,0,0,0,3.07-4.06l8.66,8.9c-11.64,15.44-29.94,18.08-45.39,6.51-2.79-2.09-5.56-4.24-8.4-6.27-8.24-5.92-17.91-5.87-26.14.11-3,2.2-6,4.54-9,6.69a33.71,33.71,0,0,1-40.22-.37c-2.82-2.06-5.58-4.22-8.41-6.27-8.4-6.09-18.09-6.09-26.44,0-2.93,2.13-5.77,4.39-8.72,6.48-12.57,8.95-28.09,8.83-40.52-.27-2.92-2.13-5.77-4.38-8.72-6.48-8.12-5.77-17.74-5.73-25.83.11-3.14,2.26-6.16,4.69-9.33,6.91A33.7,33.7,0,0,1,85,366.53c-2.73-2-5.4-4-8.11-6-9-6.62-18.61-6.53-27.65.22-3.2,2.39-6.34,4.88-9.67,7.07C28.23,375.18,13,375.14,3,367.67Z"/><path class="cls-1" d="M36.17,79.78A48,48,0,0,1,84.55,32c26.3.07,47.69,21.73,47.62,48.21C132.11,106.4,110.29,128,84,127.82A48,48,0,0,1,36.17,79.78Zm12,.06A36,36,0,1,0,84.22,44,36,36,0,0,0,48.17,79.84Z"/><path class="cls-1" d="M78.48,2.1H89.89V25.73H78.48Z"/><path class="cls-1" d="M29.89,85.72H6.35V74.2H29.89Z"/><path class="cls-1" d="M161.87,85.82h-23.4V74.16h23.4Z"/><path class="cls-1" d="M89.9,157.62H78.37v-23.5H89.9Z"/><path class="cls-1" d="M34.33,22.39,45.88,34.05l-7.57,7.11L26.75,29.55Z"/><path class="cls-1" d="M122.74,33.81l11.61-11.47,7.17,7.43L129.79,41.48Z"/><path class="cls-1" d="M122.51,125.81l7.86-7.44c3.71,3.73,7.53,7.58,11.36,11.42l-7.6,7.74Z"/><path class="cls-1" d="M26.47,129.87l11.71-11.7,7.64,7.67L34.09,137.5Z"/><path class="cls-1" d="M331.28,287.46,321,284.09c1.07-6.07,3-12.13,3-18.2.13-16-7.14-28.25-20.89-36.46a5.21,5.21,0,0,1-3-5.23q.1-86.49,0-173c0-11.17-7.67-19.28-18.07-19.25a18,18,0,0,0-17.88,17.13c-.17,4.11-.05,8.24-.05,12.36q0,81.24.07,162.49c0,2.7-.71,4.15-3.12,5.52a41.56,41.56,0,0,0-19.5,46.88c.26.94.65,1.85,1.11,3.16L252.85,276c0-5.79-.68-11.07.14-16.1,1.68-10.18,7.76-17.52,17.25-21.52,4.57-1.91,6.05-4.67,6-9.42q-.16-87.22-.07-174.47V51.82c0-5.07,2.15-7.84,6-7.84s6,2.78,6,7.84q0,88.54-.07,177.1c0,4.74,1.48,7.45,6.05,9.38a29.58,29.58,0,0,1,12.18,44.88,10.66,10.66,0,0,1-2.62,2.57c-5.62,3.68-11.43,7.06-16.91,10.92-9,6.32-18.52,6.4-27.4-.18-2.2-1.63-4.44-3.24-6.59-4.94A33.16,33.16,0,0,0,234.4,284c-2.39-.17-3.36-1.14-4-3.38A53.16,53.16,0,0,1,248,224.08a10.36,10.36,0,0,0,4.27-8.92q-.14-85.18-.05-170.36c0-15.51,9.91-27.5,24.79-30.28A29.93,29.93,0,0,1,312.15,42.2c.1,1.75.07,3.5.07,5.24q0,83.69-.07,167.37a11.13,11.13,0,0,0,4.55,9.55C335.4,239.62,341.72,267.08,331.28,287.46Z"/><path class="cls-1" d="M48.17,79.84a36,36,0,1,1,35.93,36A36,36,0,0,1,48.17,79.84Z"/></g></g></g></svg>